<?xml version="1.0" encoding="UTF-8" standalone="no"?>
<svg
   xmlns:dc="http://purl.org/dc/elements/1.1/"
   xmlns:cc="http://creativecommons.org/ns#"
   xmlns:rdf="http://www.w3.org/1999/02/22-rdf-syntax-ns#"
   xmlns:svg="http://www.w3.org/2000/svg"
   xmlns="http://www.w3.org/2000/svg"
   xmlns:sodipodi="http://sodipodi.sourceforge.net/DTD/sodipodi-0.dtd"
   xmlns:inkscape="http://www.inkscape.org/namespaces/inkscape"
   width="46.022346mm"
   height="100.12782mm"
   viewBox="0 0 46.022346 100.12782"
   version="1.1"
   id="svg8"
   inkscape:version="1.0.2 (e86c870879, 2021-01-15, custom)"
   sodipodi:docname="icon2.svg">
  <defs
     id="defs2" />
  <sodipodi:namedview
     id="base"
     pagecolor="#ffffff"
     bordercolor="#666666"
     borderopacity="1.0"
     inkscape:pageopacity="0.0"
     inkscape:pageshadow="2"
     inkscape:zoom="0.98994949"
     inkscape:cx="145.61105"
     inkscape:cy="279.35058"
     inkscape:document-units="mm"
     inkscape:current-layer="layer1"
     inkscape:document-rotation="0"
     showgrid="false"
     inkscape:window-width="1254"
     inkscape:window-height="872"
     inkscape:window-x="101"
     inkscape:window-y="0"
     inkscape:window-maximized="0" />
  <metadata
     id="metadata5">
    <rdf:RDF>
      <cc:Work
         rdf:about="">
        <dc:format>image/svg+xml</dc:format>
        <dc:type
           rdf:resource="http://purl.org/dc/dcmitype/StillImage" />
        <dc:title></dc:title>
      </cc:Work>
    </rdf:RDF>
  </metadata>
  <g
     inkscape:label="Ebene 1"
     inkscape:groupmode="layer"
     id="layer1"
     transform="translate(-2.6535741,-1.374618)">
    <path
       style="fill:#000000;stroke-width:0.264583"
       d="m 7.3287203,101.2722 c -2.037123,-0.61967 -3.981416,-2.428156 -4.511072,-4.195996 -0.238371,-0.7956 -0.220546,-11.33055 0.07668,-45.326343 L 3.2815623,7.460033 3.8711833,5.740241 c 0.32429,-0.945885 0.938488,-2.083533 1.364885,-2.528107 1.623992,-1.693227 1.43433,-1.677328 21.0120727,-1.761396 l 17.72708,-0.07612 1.24367,0.618292 c 1.51104,0.751211 2.52533,1.719831 3.09285,2.953582 0.48207,1.047978 0.48278,3.328286 0.0186,60.055518 -0.27899,34.093765 -0.16941,32.220965 -2.01116,34.372635 -0.52006,0.60757 -1.40428,1.338705 -1.96493,1.624735 -0.98467,0.50234 -1.62079,0.51926 -18.690847,0.4973 -9.719312,-0.0125 -17.9699047,-0.11352 -18.3346487,-0.22447 z M 26.594481,90.711264 c 1.11482,-0.31398 0.60386,-0.64142 -1.073127,-0.6877 -2.0584,-0.0568 -3.618894,-0.81596 -4.6755,-2.27456 -1.942896,-2.68209 -1.575213,-6.242 0.86609,-8.38549 1.239239,-1.08807 2.538513,-1.471362 4.552797,-1.343102 1.34663,0.08575 1.91128,0.268353 2.8181,0.911373 2.7268,1.933539 3.42549,6.107169 1.45449,8.688399 -0.38802,0.50816 -0.41645,0.50027 -1.19273,-0.33073 -0.75205,-0.80508 -1.37667,-1.09847 -1.37667,-0.64665 0,0.36224 4.12252,4.31589 4.30743,4.13098 0.0981,-0.0981 -0.17603,-0.58217 -0.60928,-1.07561 -0.92332,-1.0516 -0.9478,-1.22851 -0.29903,-2.16084 1.8581,-2.67026 1.28148,-6.34351 -1.36094,-8.669456 -3.67228,-3.232468 -9.400517,-1.711916 -10.933069,2.902166 -1.309285,3.94188 1.248273,8.22768 5.323015,8.91999 1.342924,0.22816 1.459704,0.22929 2.198424,0.0212 z M 10.666031,63.265477 c -0.08833,-0.230182 -0.160599,-1.000352 -0.160599,-1.711486 0,-0.925677 -0.09395,-1.256922 -0.33073,-1.166061 -0.2136397,0.08198 -0.3307287,0.687903 -0.3307287,1.711486 0,1.36751 0.06731,1.584577 0.4913287,1.584577 0.339325,0 0.441642,-0.129477 0.330729,-0.418516 z m 10.514976,0.0306 c 0.117411,-0.305972 -0.01632,-0.354875 -0.633151,-0.231511 -1.001069,0.200213 -0.992322,-0.136527 0.02677,-1.030766 0.684985,-0.601065 0.764556,-0.792321 0.519859,-1.249543 -0.426236,-0.796427 -1.857804,-0.640133 -1.857804,0.20283 0,0.327821 0.07056,0.350927 0.3175,0.103984 0.399714,-0.399714 1.005417,-0.412787 1.005417,-0.0217 0,0.162692 -0.35981,0.705602 -0.799577,1.206468 -0.439764,0.500865 -0.730395,1.022599 -0.645842,1.159407 0.25019,0.404815 1.900727,0.293677 2.066827,-0.139168 z m 9.437554,0.120761 c 0.38795,-0.207624 0.4846,-0.517911 0.43378,-1.392608 -0.036,-0.619003 -0.15638,-1.272694 -0.2676,-1.452645 -0.24784,-0.401023 -1.3975,-0.432623 -1.63706,-0.045 -0.26119,0.422606 0.10519,0.655379 0.46508,0.295487 0.45777,-0.457772 0.73642,-0.383355 0.73642,0.196678 0,0.280371 -0.20836,0.565407 -0.46302,0.633413 -0.39213,0.104714 -0.37187,0.152921 0.13229,0.31484 0.32742,0.105159 0.59531,0.359641 0.59531,0.565518 0,0.52804 -0.72553,0.743704 -1.19399,0.354915 -0.3193,-0.264993 -0.39351,-0.249785 -0.39351,0.08064 0,0.648944 0.79801,0.873845 1.5923,0.448755 z m 9.3255,-0.367541 c -0.0943,-0.493392 0.042,-0.71428 0.61246,-0.992187 1.27729,-0.622279 1.05994,-1.470404 -0.43916,-1.713672 l -0.90464,-0.146804 v 1.743678 c 0,1.427088 0.0774,1.743676 0.42633,1.743676 0.30729,0 0.39246,-0.177224 0.30501,-0.634691 z m -0.0699,-1.746559 c 0,-0.398503 0.13815,-0.541362 0.46302,-0.478798 0.25466,0.04904 0.46302,0.264501 0.46302,0.478798 0,0.214296 -0.20836,0.429754 -0.46302,0.478798 -0.32487,0.06256 -0.46302,-0.0803 -0.46302,-0.478798 z M 32.029001,49.59493 c 3.19767,-1.695617 5.90971,-5.296279 6.92519,-9.194271 0.62926,-2.415479 0.42273,-5.873319 -0.49433,-8.276186 -1.47617,-3.867814 -3.81342,-6.309651 -7.37106,-7.700891 -2.56299,-1.002271 -6.6918,-1.261666 -9.08488,-0.570759 -2.370897,0.684501 -4.515342,1.934075 -6.185686,3.604419 -4.063161,4.063161 -5.282337,10.086144 -3.179265,15.706228 0.78363,2.094108 3.588099,4.925391 6.162125,6.221039 l 1.813404,0.912784 0.955167,-0.516546 c 0.727638,-0.393502 1.031227,-0.78096 1.274463,-1.626556 0.45316,-1.575358 0.216855,-2.127474 -1.22278,-2.856994 -1.609542,-0.815615 -3.542464,-2.97034 -4.080139,-4.548331 -0.233553,-0.685437 -0.421225,-2.094915 -0.421225,-3.163541 0,-3.520009 1.54817,-6.263042 4.348835,-7.705233 1.151427,-0.59292 1.674363,-0.689948 3.720957,-0.690414 4.934964,-0.0011 8.256034,2.379948 9.119274,6.538116 0.57803,2.784369 -0.54969,6.336308 -2.57881,8.122418 -0.65505,0.576598 -1.28957,1.048364 -1.41004,1.048364 -0.12046,0 -0.152,0.208359 -0.0701,0.46302 0.12011,0.37337 0.0968,0.389472 -0.12043,0.08316 -0.19401,-0.273582 -0.36755,-0.302295 -0.62027,-0.102629 -0.19299,0.152479 -0.6765,0.354996 -1.07447,0.450037 -0.92199,0.220192 -1.18642,1.176579 -0.68764,2.487073 0.33724,0.886066 1.76303,2.17559 2.4055,2.17559 0.14001,0 0.98429,-0.386953 1.87619,-0.859896 z M 25.482952,38.350138 c 0.334749,-0.440973 0.351889,-0.440973 0.359899,0 0.0159,0.878729 0.71931,0.459994 1.04321,-0.621073 0.36938,-1.232892 0.20201,-1.633947 -0.36766,-0.880967 -0.35025,0.462963 -0.3865,0.46727 -0.39414,0.04683 -0.005,-0.254661 -0.14411,-0.46302 -0.30997,-0.46302 -0.165861,0 -0.459731,0.208359 -0.653046,0.46302 -0.334745,0.440974 -0.351885,0.440974 -0.359899,0 -0.0046,-0.254661 -0.189275,-0.46302 -0.410329,-0.46302 -0.304231,0 -0.359643,0.176844 -0.227984,0.727604 0.209645,0.876998 0.589352,1.653646 0.808477,1.653646 0.08798,0 0.318127,-0.20836 0.511442,-0.46302 z M 13.945015,19.606096 c 0,-0.231904 0.238125,-0.483915 0.529167,-0.560025 0.630034,-0.164758 0.708316,-0.605829 0.107521,-0.605829 -0.231905,0 -0.483915,-0.238126 -0.560025,-0.529167 -0.07611,-0.291042 -0.2892,-0.529167 -0.473538,-0.529167 -0.184338,0 -0.397428,0.238125 -0.473538,0.529167 -0.07611,0.291041 -0.32812,0.529167 -0.560025,0.529167 -0.600795,0 -0.522512,0.441071 0.107521,0.605829 0.291042,0.07611 0.529167,0.328121 0.529167,0.560025 0,0.231905 0.178594,0.421646 0.396875,0.421646 0.218281,0 0.396875,-0.189741 0.396875,-0.421646 z m 25.929166,-1.165854 c 0,-0.147278 -0.71076,-0.264584 -1.60311,-0.264584 -1.00137,0 -1.54174,0.09931 -1.4396,0.264584 0.0899,0.14552 0.81134,0.264583 1.60312,0.264583 0.79178,0 1.43959,-0.119063 1.43959,-0.264583 z m -12.65469,-5.994133 c 0.60343,-0.546095 0.62446,-1.498008 0.0437,-1.977117 -0.40132,-0.331063 -0.4106,-0.307607 -0.10507,0.265654 0.49951,0.937218 -0.005,1.884762 -1.00416,1.884762 -1.02218,0 -1.466882,-0.580956 -1.266311,-1.654302 0.149846,-0.801909 0.134389,-0.824971 -0.231643,-0.345649 -0.496237,0.649825 -0.492773,0.944872 0.01969,1.676495 0.499745,0.713486 1.834334,0.792263 2.543854,0.150157 z m -1.18584,-2.406389 c -0.0666,-0.254661 -0.121,-0.0463 -0.121,0.463021 0,0.509323 0.0545,0.717683 0.121,0.463021 0.0665,-0.254661 0.0665,-0.67138 0,-0.926042 z"
       id="path24" />
  </g>
</svg>
