<svg id="svg" version="1.1" xmlns="http://www.w3.org/2000/svg" xmlns:xlink="http://www.w3.org/1999/xlink" width="400" height="400" viewBox="0, 0, 400,400"><g id="svgg"><path id="path0" d="M251.800 47.625 C 249.380 47.793,244.206 47.990,240.302 48.065 C 236.397 48.139,233.202 48.232,233.202 48.271 C 233.201 48.311,233.515 48.661,233.900 49.049 C 234.567 49.722,234.562 49.739,233.800 49.417 C 233.360 49.231,232.580 49.046,232.066 49.007 C 231.552 48.968,231.012 48.765,230.866 48.557 C 230.720 48.349,230.117 48.191,229.527 48.207 C 228.937 48.223,228.542 48.093,228.651 47.918 C 228.759 47.743,228.482 47.600,228.036 47.600 C 227.551 47.600,227.302 47.801,227.417 48.100 C 227.568 48.493,225.536 48.579,217.905 48.501 C 183.720 48.153,152.513 48.229,152.678 48.660 C 152.775 48.912,152.634 49.255,152.365 49.421 C 152.070 49.604,151.979 49.557,152.136 49.304 C 152.279 49.073,152.112 48.775,151.765 48.642 C 150.713 48.238,150.412 48.366,150.687 49.100 C 150.921 49.724,150.873 49.738,150.244 49.226 C 149.427 48.560,148.694 49.259,149.101 50.318 C 149.250 50.707,149.134 50.842,148.764 50.713 C 148.454 50.605,148.253 50.221,148.318 49.859 C 148.382 49.496,148.237 49.200,147.994 49.200 C 147.751 49.200,147.656 49.368,147.783 49.572 C 147.909 49.777,147.818 50.065,147.579 50.213 C 147.341 50.360,147.236 50.718,147.347 51.007 C 147.459 51.297,147.311 51.625,147.020 51.737 C 146.666 51.873,146.554 51.699,146.680 51.215 C 146.784 50.817,146.643 50.350,146.367 50.180 C 146.005 49.956,145.942 50.071,146.141 50.591 C 146.386 51.229,146.339 51.249,145.734 50.757 C 145.127 50.262,145.082 50.285,145.334 50.957 C 145.575 51.599,145.526 51.637,145.009 51.208 C 144.559 50.834,144.400 50.826,144.400 51.175 C 144.400 51.435,144.192 51.519,143.938 51.362 C 143.650 51.184,143.585 51.252,143.766 51.545 C 143.925 51.802,144.223 51.909,144.428 51.783 C 144.632 51.656,144.800 51.754,144.800 52.000 C 144.800 52.251,145.019 52.316,145.300 52.147 C 145.601 51.966,145.567 52.133,145.215 52.567 C 144.844 53.023,144.573 53.119,144.476 52.827 C 144.360 52.481,144.183 52.482,143.761 52.832 C 143.007 53.459,143.047 54.144,143.821 53.847 C 144.177 53.711,144.337 53.778,144.197 54.005 C 144.063 54.222,143.683 54.400,143.353 54.400 C 142.979 54.400,142.866 54.589,143.053 54.900 C 143.276 55.271,143.187 55.265,142.709 54.878 C 142.158 54.431,142.084 54.460,142.202 55.078 C 142.277 55.475,142.353 55.948,142.369 56.129 C 142.386 56.310,142.871 56.087,143.447 55.634 C 145.106 54.330,145.527 55.170,143.914 56.566 C 143.131 57.245,141.996 58.565,141.392 59.500 C 140.788 60.435,140.174 61.200,140.027 61.200 C 139.626 61.200,138.800 60.294,138.800 59.853 C 138.800 59.641,138.918 59.585,139.063 59.730 C 139.345 60.012,140.400 59.292,140.400 58.818 C 140.400 58.661,140.138 58.533,139.818 58.533 C 139.497 58.533,139.312 58.657,139.405 58.808 C 139.498 58.959,139.131 59.285,138.587 59.533 C 137.887 59.852,137.600 59.857,137.600 59.549 C 137.600 59.310,137.339 59.214,137.020 59.337 C 136.616 59.492,136.504 59.354,136.651 58.880 C 136.818 58.337,136.765 58.350,136.384 58.948 C 135.908 59.694,136.540 60.608,137.235 60.178 C 137.386 60.085,137.605 60.377,137.723 60.827 C 137.899 61.499,137.835 61.561,137.369 61.174 C 136.949 60.826,136.659 60.819,136.263 61.148 C 135.968 61.393,135.608 61.475,135.463 61.330 C 135.318 61.185,135.200 61.257,135.200 61.491 C 135.200 62.131,136.242 62.398,136.751 61.889 C 137.246 61.394,137.361 61.964,136.894 62.600 C 136.456 63.196,135.200 63.308,135.200 62.751 C 135.200 62.485,135.084 62.382,134.943 62.524 C 134.802 62.665,134.917 63.059,135.200 63.400 C 135.483 63.741,135.589 64.145,135.435 64.298 C 135.282 64.451,134.989 64.312,134.784 63.988 C 134.557 63.629,134.410 63.586,134.406 63.876 C 134.403 64.138,134.583 64.466,134.807 64.604 C 135.030 64.742,135.098 65.042,134.957 65.270 C 134.791 65.539,134.569 65.494,134.328 65.143 C 134.052 64.738,133.992 64.804,134.093 65.400 C 134.175 65.881,134.490 66.156,134.884 66.089 C 135.245 66.029,135.636 66.134,135.753 66.324 C 135.870 66.514,135.434 66.638,134.783 66.599 C 134.132 66.560,133.600 66.680,133.600 66.864 C 133.600 67.049,133.774 67.200,133.987 67.200 C 134.201 67.200,134.260 67.500,134.119 67.866 C 133.932 68.354,134.015 68.451,134.432 68.231 C 134.744 68.066,134.614 68.261,134.143 68.665 C 133.325 69.365,132.442 75.999,133.166 76.000 C 133.773 76.001,133.470 78.003,132.858 78.040 C 132.496 78.062,132.650 78.205,133.200 78.358 C 133.750 78.511,134.182 78.853,134.160 79.118 C 134.138 79.383,134.063 82.345,133.993 85.700 L 133.866 91.800 133.596 86.000 C 133.445 82.747,133.483 79.996,133.683 79.736 C 133.893 79.461,133.885 79.176,133.661 79.038 C 133.454 78.910,133.146 79.119,132.978 79.502 C 132.593 80.379,132.099 160.554,132.478 160.726 C 132.630 160.795,132.645 161.140,132.510 161.491 C 132.372 161.850,132.432 162.028,132.646 161.895 C 133.225 161.537,133.113 163.323,132.519 163.929 C 132.174 164.280,132.026 165.420,132.078 167.329 L 132.157 170.200 132.299 167.400 C 132.542 162.598,133.082 163.696,133.387 169.613 C 133.590 173.560,133.545 175.415,133.239 175.721 C 132.998 175.962,132.771 176.979,132.735 177.980 L 132.670 179.800 132.433 177.600 C 131.881 172.470,131.301 233.930,131.594 266.524 C 131.597 266.947,131.783 267.134,132.040 266.975 C 132.349 266.784,132.345 266.956,132.026 267.552 C 131.698 268.165,131.695 268.400,132.014 268.400 C 132.281 268.400,132.233 268.624,131.894 268.963 C 130.991 269.866,130.347 337.752,131.206 341.476 C 131.840 344.222,133.234 347.626,133.626 347.384 C 133.827 347.260,133.872 347.467,133.727 347.845 C 133.562 348.277,133.621 348.434,133.887 348.270 C 134.127 348.121,134.286 348.309,134.255 348.704 C 134.225 349.089,134.437 349.351,134.730 349.290 C 135.021 349.230,135.155 349.349,135.027 349.556 C 134.899 349.763,135.241 350.463,135.786 351.111 C 136.332 351.759,136.648 352.433,136.489 352.609 C 136.330 352.784,136.439 352.790,136.730 352.622 C 137.142 352.384,137.053 352.080,136.330 351.258 L 135.400 350.200 136.488 351.158 C 137.086 351.685,137.486 352.261,137.376 352.438 C 137.109 352.870,138.610 353.649,139.012 353.286 C 139.186 353.129,139.211 353.205,139.069 353.455 C 138.726 354.055,139.830 354.952,140.444 354.573 C 140.730 354.396,140.819 354.446,140.665 354.694 C 140.332 355.233,142.280 356.522,142.873 356.155 C 143.169 355.972,143.211 356.058,142.996 356.406 C 142.756 356.794,142.853 356.865,143.355 356.673 C 143.733 356.528,143.944 356.566,143.826 356.758 C 143.526 357.243,145.841 358.146,146.438 357.777 C 146.734 357.594,146.820 357.644,146.659 357.904 C 145.927 359.089,150.928 359.200,205.243 359.200 C 243.085 359.200,259.968 359.071,259.790 358.784 C 259.622 358.512,259.910 358.463,260.626 358.642 C 261.472 358.855,261.646 358.798,261.394 358.390 C 261.157 358.006,261.255 357.935,261.756 358.128 C 262.440 358.390,265.561 357.030,267.645 355.561 C 268.220 355.155,268.834 354.953,269.009 355.112 C 269.185 355.270,269.217 355.204,269.081 354.965 C 268.945 354.726,269.549 353.831,270.425 352.976 C 271.301 352.121,271.930 351.194,271.823 350.915 C 271.716 350.637,271.847 350.452,272.114 350.505 C 272.381 350.557,272.577 350.299,272.550 349.932 C 272.515 349.473,272.704 349.340,273.150 349.507 C 273.734 349.725,273.739 349.674,273.200 348.998 C 272.827 348.530,272.793 348.363,273.111 348.554 C 274.216 349.218,277.402 340.207,276.462 339.075 C 276.201 338.760,276.110 338.179,276.261 337.785 C 276.450 337.293,276.389 337.159,276.068 337.358 C 275.811 337.517,275.600 337.937,275.600 338.292 C 275.600 338.647,275.285 339.297,274.900 339.737 C 274.515 340.177,274.395 340.424,274.633 340.286 C 274.872 340.148,275.067 340.289,275.067 340.600 C 275.067 340.911,274.930 341.080,274.762 340.977 C 274.595 340.873,274.343 341.151,274.202 341.594 C 274.061 342.037,273.799 342.400,273.620 342.400 C 273.440 342.400,273.199 342.760,273.084 343.200 C 272.969 343.640,272.675 344.000,272.430 344.000 C 272.160 344.000,272.079 343.623,272.225 343.044 C 272.357 342.518,272.270 341.967,272.032 341.820 C 271.791 341.671,271.600 341.836,271.600 342.193 C 271.600 342.546,271.420 343.051,271.199 343.317 C 270.979 343.583,270.199 344.700,269.466 345.800 C 267.732 348.404,264.218 351.218,260.115 353.289 C 257.494 354.612,256.917 355.058,257.272 355.486 C 257.819 356.146,256.257 358.000,255.154 358.000 C 254.765 358.000,254.339 358.176,254.206 358.391 C 253.843 358.977,156.775 358.904,154.411 358.316 C 153.415 358.067,151.801 357.370,150.825 356.766 L 149.050 355.668 150.225 355.534 C 151.761 355.359,151.479 354.712,149.629 354.165 C 146.260 353.171,140.082 348.985,140.849 348.217 C 140.957 348.110,142.474 348.782,144.222 349.711 L 147.400 351.400 157.000 351.367 C 167.106 351.331,172.858 350.593,176.400 348.878 L 177.800 348.200 178.054 344.800 C 178.416 339.949,179.853 335.374,185.090 322.400 C 186.911 317.889,187.665 317.736,193.275 320.739 C 200.576 324.648,209.147 325.318,210.181 322.061 C 210.804 320.096,209.356 319.347,204.400 319.072 C 196.035 318.608,191.065 314.481,191.106 308.033 C 191.127 304.679,195.003 292.564,196.993 289.635 C 202.253 281.890,215.317 284.688,220.149 294.593 C 223.976 302.441,221.367 312.735,216.192 310.200 C 213.198 308.734,212.000 309.026,212.000 311.220 C 212.000 313.222,220.551 322.421,222.979 323.030 C 225.635 323.697,226.384 321.304,224.390 318.527 C 222.846 316.377,222.902 315.673,225.019 310.603 C 230.811 296.735,222.091 282.312,206.658 280.233 C 199.883 279.321,200.067 279.859,202.955 269.400 C 205.277 260.989,208.576 253.965,211.783 250.600 C 214.312 247.947,215.181 247.601,219.326 247.596 C 229.697 247.584,237.173 233.995,230.320 227.612 C 228.106 225.548,226.800 227.084,226.800 231.751 C 226.800 238.417,223.903 240.445,222.792 234.557 C 221.775 229.168,217.145 226.973,214.194 230.481 C 213.146 231.726,213.140 231.771,213.269 237.456 C 213.420 244.065,212.987 245.168,210.458 244.613 C 205.830 243.596,203.371 230.730,206.440 223.595 C 207.532 221.058,208.618 220.200,212.060 219.154 C 214.639 218.371,216.800 216.726,216.800 215.547 C 216.800 215.332,217.785 214.721,218.988 214.188 C 220.852 213.364,221.328 212.921,222.202 211.196 C 223.564 208.508,225.422 206.511,229.941 202.877 C 251.156 185.813,257.176 165.637,248.206 141.658 C 244.369 131.401,245.020 126.982,251.752 117.607 C 257.394 109.749,258.420 104.621,255.830 97.208 C 254.386 93.075,254.631 87.005,256.573 78.800 C 256.911 77.370,257.191 75.511,257.194 74.670 C 257.199 73.511,257.454 72.928,258.248 72.270 C 264.021 67.480,265.139 65.580,265.822 59.400 C 266.227 55.730,267.378 55.324,269.796 57.996 C 271.232 59.582,271.878 59.712,271.800 58.398 L 271.731 57.239 272.865 58.047 C 273.489 58.491,274.005 58.707,274.012 58.527 C 274.019 58.347,274.208 58.515,274.432 58.900 C 274.656 59.285,275.236 59.614,275.720 59.632 C 276.204 59.649,276.376 59.753,276.103 59.864 C 275.757 60.004,275.722 60.281,275.989 60.780 C 276.200 61.173,276.251 61.616,276.103 61.763 C 275.956 61.911,276.232 62.136,276.717 62.263 C 277.611 62.496,277.956 63.200,277.176 63.200 C 276.943 63.200,276.866 63.383,277.004 63.607 C 277.142 63.830,277.430 63.905,277.644 63.773 C 277.880 63.627,277.930 63.938,277.773 64.566 C 277.599 65.259,277.676 65.600,278.007 65.600 C 278.341 65.600,278.423 65.986,278.260 66.800 C 278.109 67.557,278.184 68.000,278.464 68.000 C 279.021 68.000,278.666 65.081,277.734 62.000 C 276.971 59.476,276.484 58.701,275.893 59.066 C 275.644 59.220,275.597 59.129,275.776 58.838 C 276.156 58.223,274.051 55.121,273.489 55.469 C 273.260 55.610,273.196 55.530,273.346 55.288 C 273.684 54.741,270.987 52.637,270.407 52.995 C 270.172 53.141,270.030 53.021,270.090 52.730 C 270.151 52.438,269.898 52.198,269.528 52.195 C 269.159 52.192,268.709 52.028,268.528 51.831 C 268.341 51.626,268.414 51.595,268.700 51.759 C 268.975 51.918,269.200 51.953,269.200 51.838 C 269.200 51.722,268.818 51.424,268.352 51.174 C 267.714 50.833,267.574 50.835,267.788 51.181 C 267.954 51.449,267.431 51.363,266.536 50.975 C 265.691 50.608,264.783 50.299,264.518 50.287 C 264.252 50.276,264.123 50.125,264.230 49.951 C 264.338 49.777,264.735 49.731,265.113 49.848 C 265.713 50.033,265.709 50.002,265.079 49.599 C 264.564 49.269,264.210 49.259,263.842 49.565 C 263.559 49.800,263.193 49.860,263.030 49.697 C 262.867 49.533,262.568 49.377,262.367 49.350 C 262.165 49.323,261.910 49.255,261.800 49.200 C 261.690 49.145,261.465 49.062,261.300 49.015 C 260.277 48.727,259.635 48.267,259.826 47.958 C 259.948 47.761,259.756 47.600,259.400 47.600 C 259.044 47.600,258.840 47.741,258.947 47.914 C 259.054 48.087,258.790 48.229,258.361 48.229 C 257.889 48.229,257.658 48.025,257.778 47.714 C 257.905 47.382,257.662 47.221,257.087 47.260 C 256.599 47.294,254.220 47.458,251.800 47.625 M237.700 51.489 C 236.985 51.578,235.815 51.578,235.100 51.489 C 234.385 51.401,234.970 51.328,236.400 51.328 C 237.830 51.328,238.415 51.401,237.700 51.489 M141.610 52.588 C 141.163 53.126,142.179 54.354,142.667 53.866 C 142.803 53.730,142.620 53.506,142.260 53.368 C 141.899 53.229,141.710 52.946,141.838 52.739 C 141.979 52.510,142.279 52.534,142.600 52.800 C 142.916 53.062,143.222 53.089,143.360 52.865 C 143.721 52.280,142.080 52.021,141.610 52.588 M141.066 53.920 C 141.308 54.298,139.504 55.988,139.116 55.748 C 138.913 55.623,139.075 55.133,139.474 54.660 C 140.200 53.800,140.200 53.800,139.327 54.538 C 138.803 54.980,138.550 55.527,138.695 55.903 C 138.847 56.300,138.774 56.431,138.496 56.259 C 138.253 56.109,137.924 56.215,137.764 56.493 C 137.603 56.772,137.618 56.868,137.796 56.706 C 137.975 56.545,138.378 56.725,138.693 57.106 C 139.235 57.764,139.254 57.763,139.045 57.100 C 138.913 56.681,139.033 56.400,139.343 56.400 C 140.164 56.400,141.818 54.447,141.337 54.045 C 141.110 53.855,140.989 53.799,141.066 53.920 M136.983 57.627 C 136.850 57.843,136.889 57.994,137.070 57.963 C 137.892 57.820,138.148 58.049,137.600 58.437 C 137.112 58.782,137.107 58.832,137.575 58.705 C 137.891 58.620,138.214 58.358,138.292 58.124 C 138.478 57.566,137.298 57.118,136.983 57.627 M136.919 64.267 C 136.807 64.560,136.543 64.800,136.334 64.800 C 136.124 64.800,136.064 64.980,136.200 65.200 C 136.336 65.420,136.257 65.600,136.024 65.600 C 135.791 65.600,135.600 65.435,135.600 65.233 C 135.600 64.439,136.061 63.733,136.579 63.733 C 136.879 63.733,137.032 63.973,136.919 64.267 M138.800 64.800 C 138.800 65.240,138.620 65.600,138.400 65.600 C 138.180 65.600,138.000 65.240,138.000 64.800 C 138.000 64.360,138.180 64.000,138.400 64.000 C 138.620 64.000,138.800 64.360,138.800 64.800 M278.349 68.500 C 278.053 69.080,277.279 75.271,276.962 79.600 C 276.657 83.758,276.010 84.793,275.975 81.180 C 275.922 75.805,275.099 80.496,274.896 87.328 C 274.686 94.391,274.953 95.808,276.186 94.179 C 276.510 93.750,276.780 93.599,276.787 93.842 C 276.794 94.084,277.265 94.785,277.833 95.398 C 278.561 96.183,278.725 96.599,278.390 96.806 C 278.059 97.011,278.045 97.181,278.346 97.366 C 278.861 97.685,279.392 95.878,279.048 94.980 C 278.911 94.623,278.978 94.463,279.205 94.603 C 279.644 94.874,279.779 71.793,279.350 69.650 C 279.148 68.638,278.600 68.009,278.349 68.500 M203.043 71.369 C 203.176 71.714,202.335 72.865,200.913 74.287 C 199.188 76.012,198.203 77.458,197.204 79.732 C 195.263 84.149,193.258 83.100,194.362 78.246 C 195.386 73.746,201.958 68.540,203.043 71.369 M247.110 91.069 C 250.043 93.249,248.008 96.664,243.879 96.493 C 237.810 96.242,235.029 99.361,235.261 106.155 C 235.398 110.146,235.387 110.202,234.457 110.333 C 230.851 110.844,228.599 101.498,231.131 96.534 C 233.996 90.920,242.840 87.895,247.110 91.069 M169.960 100.980 C 173.855 102.994,172.573 108.800,168.233 108.800 C 166.802 108.800,164.000 106.271,164.000 104.979 C 164.000 102.133,167.565 99.741,169.960 100.980 M211.701 118.593 C 230.096 121.365,243.062 134.142,246.619 153.000 C 249.730 169.492,240.305 189.529,225.400 198.110 C 218.585 202.033,215.407 201.421,212.223 195.571 C 209.971 191.434,211.006 188.918,215.676 187.172 C 225.945 183.331,232.422 173.320,232.478 161.200 C 232.535 148.872,227.018 142.710,212.350 138.720 C 183.649 130.912,167.872 165.474,191.689 183.980 C 198.034 188.909,198.926 191.266,196.328 196.226 C 193.438 201.745,189.816 202.013,181.705 197.307 C 171.788 191.553,167.077 185.864,164.852 176.954 C 156.196 142.286,179.153 113.687,211.701 118.593 M278.334 143.800 C 278.188 149.080,277.891 155.200,277.673 157.400 C 277.351 160.659,276.028 177.403,276.006 178.500 C 275.984 179.575,275.200 178.528,275.200 177.424 C 275.200 175.804,274.596 175.219,274.251 176.504 C 273.888 177.858,273.952 195.600,274.320 195.600 C 274.496 195.600,274.868 195.375,275.147 195.100 C 275.703 194.552,276.983 195.780,276.564 196.459 C 276.448 196.647,276.768 196.803,277.276 196.806 C 277.784 196.809,278.020 196.944,277.800 197.106 C 277.541 197.296,277.393 206.154,277.379 222.200 C 277.366 236.921,277.147 250.983,276.838 256.800 C 276.553 262.190,276.199 271.280,276.053 277.000 C 275.801 286.828,275.089 292.285,274.501 288.900 C 274.319 287.854,273.792 287.721,273.443 288.633 C 272.887 290.082,273.176 300.400,273.773 300.400 C 274.088 300.400,274.467 300.020,274.614 299.556 C 274.853 298.803,274.971 298.888,275.708 300.338 C 276.162 301.233,276.684 301.872,276.867 301.759 C 277.050 301.645,277.200 301.728,277.200 301.943 C 277.200 302.158,276.975 302.414,276.700 302.512 C 276.425 302.610,276.345 302.845,276.522 303.034 C 277.930 304.535,278.017 301.561,278.210 245.800 C 278.306 217.860,278.523 189.240,278.692 182.200 C 278.862 175.160,278.910 161.480,278.800 151.800 C 278.602 134.357,278.598 134.286,278.334 143.800 M206.300 150.229 C 206.795 150.553,207.200 151.093,207.200 151.430 C 207.200 152.026,206.615 152.330,202.684 153.774 C 198.831 155.190,197.019 157.677,196.558 162.182 C 195.969 167.931,192.400 166.284,192.400 160.263 C 192.400 152.747,200.839 146.655,206.300 150.229 M227.582 152.171 C 233.532 161.798,227.176 178.103,215.197 183.943 C 212.889 185.068,210.216 186.576,209.258 187.294 C 206.420 189.422,200.682 188.735,199.493 186.126 C 198.868 184.753,199.389 184.436,203.423 183.740 C 217.913 181.240,225.984 171.643,225.995 156.900 C 226.000 150.482,226.190 149.918,227.582 152.171 M208.546 158.829 C 210.512 160.376,209.489 164.386,206.845 165.490 C 202.900 167.139,199.085 163.944,200.421 160.110 C 201.190 157.905,206.339 157.093,208.546 158.829 M192.212 222.179 C 195.853 223.701,194.842 225.811,190.190 226.401 C 184.258 227.153,181.600 229.904,181.600 235.289 C 181.600 238.365,181.146 239.600,180.015 239.600 C 177.081 239.600,175.797 231.058,178.134 227.081 C 180.658 222.785,187.751 220.315,192.212 222.179 M159.024 224.362 C 158.901 224.561,157.835 225.268,156.655 225.934 C 153.907 227.485,151.807 229.951,150.738 232.882 C 149.802 235.448,149.006 235.849,148.592 233.963 C 147.514 229.055,151.934 224.000,157.302 224.000 C 158.372 224.000,159.147 224.163,159.024 224.362 M246.872 229.671 C 243.389 230.632,243.345 240.223,246.814 242.272 C 247.485 242.668,248.132 243.386,248.252 243.867 C 249.518 248.910,259.890 245.107,261.608 238.970 C 262.703 235.061,261.172 229.600,258.981 229.600 C 258.543 229.600,257.962 231.449,257.602 233.986 C 256.992 238.290,255.777 240.305,252.920 241.752 C 249.081 243.696,248.402 240.626,251.820 236.778 C 255.446 232.695,252.297 228.173,246.872 229.671 M159.807 232.155 C 160.960 233.915,160.479 240.016,159.127 240.773 C 157.162 241.873,156.400 240.627,156.400 236.312 C 156.400 231.388,158.014 229.419,159.807 232.155 M190.551 232.090 C 190.870 232.600,190.834 233.122,190.412 234.090 C 190.098 234.810,189.874 236.375,189.914 237.567 C 189.996 240.020,189.554 240.800,188.083 240.800 C 185.822 240.800,184.914 238.581,186.400 236.691 C 186.954 235.986,187.200 235.068,187.200 233.704 C 187.200 231.095,189.296 230.085,190.551 232.090 M132.051 276.600 L 131.721 283.400 131.660 276.567 C 131.627 272.808,131.731 269.602,131.892 269.442 C 132.381 268.953,132.394 269.556,132.051 276.600 M198.000 283.583 C 198.000 283.793,196.755 284.971,195.233 286.201 C 187.470 292.473,185.034 299.454,187.413 308.610 C 188.526 312.893,188.423 313.614,186.961 311.800 C 181.917 305.541,183.530 293.551,190.258 287.308 C 193.343 284.445,198.000 282.204,198.000 283.583 M276.979 325.800 C 276.979 333.060,277.033 336.086,277.099 332.525 C 277.165 328.964,277.166 323.024,277.099 319.325 C 277.033 315.626,276.979 318.540,276.979 325.800 M269.809 353.191 C 268.731 354.286,267.782 355.115,267.701 355.034 C 267.548 354.881,271.260 351.226,271.585 351.209 C 271.687 351.204,270.888 352.096,269.809 353.191 " stroke="none" fill="#838383" fill-rule="evenodd"></path><path id="path1" d="M143.900 50.427 C 143.075 50.863,142.400 51.308,142.400 51.418 C 142.400 51.596,145.559 50.119,145.967 49.751 C 146.427 49.334,145.225 49.728,143.900 50.427 M268.800 50.970 C 268.800 51.080,269.872 51.898,271.181 52.787 C 274.168 54.816,275.679 56.823,277.514 61.200 C 278.595 63.779,279.151 68.000,278.410 68.000 C 278.190 68.000,278.125 67.477,278.260 66.800 C 278.423 65.986,278.341 65.600,278.007 65.600 C 277.676 65.600,277.599 65.259,277.773 64.566 C 277.930 63.938,277.880 63.627,277.644 63.773 C 277.430 63.905,277.142 63.830,277.004 63.607 C 276.866 63.383,276.943 63.200,277.176 63.200 C 277.956 63.200,277.611 62.496,276.717 62.263 C 276.232 62.136,275.956 61.911,276.103 61.763 C 276.251 61.616,276.200 61.173,275.989 60.780 C 275.722 60.281,275.757 60.004,276.103 59.864 C 276.376 59.753,276.204 59.649,275.720 59.632 C 275.236 59.614,274.656 59.285,274.432 58.900 C 274.208 58.515,274.019 58.347,274.012 58.527 C 274.005 58.707,273.489 58.491,272.865 58.047 L 271.731 57.239 271.800 58.398 C 271.878 59.712,271.232 59.582,269.796 57.996 C 267.378 55.324,266.227 55.730,265.822 59.400 C 265.139 65.580,264.021 67.480,258.248 72.270 C 257.454 72.928,257.199 73.511,257.194 74.670 C 257.191 75.511,256.911 77.370,256.573 78.800 C 254.631 87.005,254.386 93.075,255.830 97.208 C 258.420 104.621,257.394 109.749,251.752 117.607 C 245.020 126.982,244.369 131.401,248.206 141.658 C 257.176 165.637,251.156 185.813,229.941 202.877 C 225.422 206.511,223.564 208.508,222.202 211.196 C 221.328 212.921,220.852 213.364,218.988 214.188 C 217.785 214.721,216.800 215.332,216.800 215.547 C 216.800 216.726,214.639 218.371,212.060 219.154 C 208.618 220.200,207.532 221.058,206.440 223.595 C 203.371 230.730,205.830 243.596,210.458 244.613 C 212.987 245.168,213.420 244.065,213.269 237.456 C 213.140 231.771,213.146 231.726,214.194 230.481 C 217.145 226.973,221.775 229.168,222.792 234.557 C 223.910 240.484,226.800 238.412,226.800 231.682 C 226.800 227.056,228.105 225.547,230.320 227.612 C 237.173 233.995,229.697 247.584,219.326 247.596 C 215.181 247.601,214.312 247.947,211.783 250.600 C 208.576 253.965,205.277 260.989,202.955 269.400 C 200.067 279.859,199.883 279.321,206.658 280.233 C 222.091 282.312,230.811 296.735,225.019 310.603 C 222.902 315.673,222.846 316.377,224.390 318.527 C 226.384 321.304,225.635 323.697,222.979 323.030 C 220.551 322.421,212.000 313.222,212.000 311.220 C 212.000 309.026,213.198 308.734,216.192 310.200 C 219.223 311.685,220.773 310.111,221.719 304.590 C 224.228 289.939,204.777 278.174,196.993 289.635 C 195.003 292.564,191.127 304.679,191.106 308.033 C 191.065 314.481,196.035 318.608,204.400 319.072 C 209.362 319.348,210.919 320.182,210.161 322.158 C 208.951 325.311,200.487 324.600,193.275 320.739 C 187.665 317.736,186.911 317.889,185.090 322.400 C 179.853 335.374,178.416 339.949,178.054 344.800 L 177.800 348.200 176.400 348.878 C 172.858 350.593,167.106 351.331,157.000 351.367 L 147.400 351.400 144.222 349.711 C 142.474 348.782,140.957 348.110,140.849 348.217 C 140.072 348.995,146.268 353.173,149.702 354.187 C 151.579 354.741,151.816 355.353,150.225 355.534 L 149.050 355.668 150.825 356.766 C 151.801 357.370,153.415 358.067,154.411 358.316 C 156.775 358.904,253.843 358.977,254.206 358.391 C 254.339 358.176,254.765 358.000,255.154 358.000 C 256.257 358.000,257.819 356.146,257.272 355.486 C 256.917 355.058,257.494 354.612,260.115 353.289 C 264.218 351.218,267.732 348.404,269.466 345.800 C 270.199 344.700,270.979 343.583,271.199 343.317 C 271.420 343.051,271.600 342.546,271.600 342.193 C 271.600 341.836,271.791 341.671,272.032 341.820 C 272.270 341.967,272.357 342.518,272.225 343.044 C 272.079 343.623,272.160 344.000,272.430 344.000 C 272.675 344.000,272.969 343.640,273.084 343.200 C 273.199 342.760,273.440 342.400,273.620 342.400 C 273.799 342.400,274.061 342.037,274.202 341.594 C 274.343 341.151,274.595 340.873,274.762 340.977 C 274.930 341.080,275.067 340.911,275.067 340.600 C 275.067 340.289,274.872 340.148,274.633 340.286 C 274.395 340.424,274.515 340.177,274.900 339.737 C 275.285 339.297,275.600 338.647,275.600 338.292 C 275.600 337.937,275.799 337.524,276.043 337.374 C 276.338 337.191,276.399 337.372,276.227 337.916 C 276.084 338.365,276.155 338.848,276.384 338.990 C 276.668 339.166,276.829 335.029,276.892 325.924 L 276.984 312.600 277.200 326.400 L 277.416 340.200 277.508 321.597 C 277.561 310.914,277.767 302.411,277.993 301.624 C 278.209 300.870,278.310 300.176,278.216 300.083 C 278.122 299.989,277.872 300.517,277.659 301.256 C 277.446 301.995,277.256 302.364,277.236 302.076 C 277.216 301.788,277.050 301.645,276.867 301.759 C 276.684 301.872,276.162 301.233,275.708 300.338 C 274.971 298.888,274.853 298.803,274.614 299.556 C 274.467 300.020,274.088 300.400,273.773 300.400 C 273.176 300.400,272.887 290.082,273.443 288.633 C 273.792 287.721,274.319 287.854,274.501 288.900 C 275.088 292.278,275.794 286.790,276.084 276.600 C 276.253 270.660,276.581 262.200,276.812 257.800 C 277.593 242.972,277.722 196.800,276.982 196.800 C 276.636 196.800,276.448 196.647,276.564 196.459 C 276.983 195.780,275.703 194.552,275.147 195.100 C 274.868 195.375,274.496 195.600,274.320 195.600 C 273.952 195.600,273.888 177.858,274.251 176.504 C 274.596 175.219,275.200 175.804,275.200 177.424 C 275.200 178.528,275.984 179.575,276.006 178.500 C 276.028 177.403,277.351 160.659,277.673 157.400 C 277.891 155.200,278.188 149.080,278.334 143.800 C 278.597 134.309,278.602 134.402,278.806 152.000 C 278.970 166.116,279.033 162.308,279.112 133.600 C 279.166 113.690,279.300 96.950,279.410 96.400 C 279.592 95.483,279.573 95.491,279.170 96.502 C 278.929 97.109,278.548 97.491,278.323 97.352 C 278.057 97.188,278.080 96.998,278.390 96.806 C 278.725 96.599,278.561 96.183,277.833 95.398 C 277.265 94.785,276.794 94.084,276.787 93.842 C 276.780 93.599,276.510 93.750,276.186 94.179 C 274.953 95.808,274.686 94.391,274.896 87.328 C 275.099 80.496,275.922 75.805,275.975 81.180 C 276.010 84.793,276.657 83.758,276.962 79.600 C 277.175 76.697,277.670 72.220,278.086 69.433 C 278.252 68.319,278.978 68.244,279.441 69.293 C 279.662 69.792,279.783 69.949,279.711 69.642 C 279.639 69.335,279.410 67.895,279.202 66.442 C 278.496 61.510,276.894 57.756,274.258 54.855 C 273.362 53.869,268.800 50.622,268.800 50.970 M138.975 54.100 L 137.800 55.400 139.100 54.225 C 140.312 53.130,140.584 52.800,140.275 52.800 C 140.206 52.800,139.621 53.385,138.975 54.100 M199.259 71.663 C 195.987 73.282,193.313 78.538,194.282 81.446 C 194.969 83.508,195.744 83.053,197.204 79.732 C 198.203 77.458,199.188 76.012,200.913 74.287 C 204.186 71.014,203.325 69.650,199.259 71.663 M240.185 90.039 C 232.981 90.944,228.370 98.587,230.534 106.031 C 232.240 111.901,235.461 111.986,235.261 106.155 C 235.029 99.361,237.810 96.242,243.879 96.493 C 246.296 96.593,246.535 96.523,247.456 95.452 C 250.295 92.153,246.405 89.256,240.185 90.039 M200.380 149.727 C 195.372 151.126,192.400 155.050,192.400 160.263 C 192.400 166.284,195.969 167.931,196.558 162.182 C 197.019 157.677,198.831 155.190,202.684 153.774 C 206.615 152.330,207.200 152.026,207.200 151.430 C 207.200 149.843,203.379 148.890,200.380 149.727 M225.995 156.900 C 225.984 171.643,217.913 181.240,203.423 183.740 C 199.389 184.436,198.868 184.753,199.493 186.126 C 200.682 188.735,206.420 189.422,209.258 187.294 C 210.216 186.576,212.889 185.068,215.197 183.943 C 227.176 178.103,233.532 161.798,227.582 152.171 C 226.190 149.918,226.000 150.482,225.995 156.900 M278.421 196.300 C 278.142 197.306,278.035 211.756,278.097 240.200 L 278.189 282.600 278.395 239.400 C 278.508 215.640,278.754 195.885,278.943 195.500 C 279.131 195.115,279.185 194.800,279.062 194.800 C 278.938 194.800,278.650 195.475,278.421 196.300 M185.197 221.974 C 178.807 223.918,175.839 228.844,177.177 235.287 C 178.391 241.137,181.600 241.138,181.600 235.289 C 181.600 229.904,184.258 227.153,190.190 226.401 C 193.904 225.930,194.776 225.344,194.070 223.794 C 193.223 221.935,188.506 220.967,185.197 221.974 M153.242 225.054 C 149.738 226.800,147.824 230.467,148.592 233.963 C 149.006 235.849,149.802 235.448,150.738 232.882 C 151.807 229.951,153.907 227.485,156.655 225.934 C 159.507 224.325,159.615 224.000,157.302 224.000 C 156.003 224.000,154.655 224.350,153.242 225.054 M251.600 230.319 C 254.243 231.960,254.311 233.973,251.820 236.778 C 248.402 240.626,249.081 243.696,252.920 241.752 C 255.777 240.305,256.992 238.290,257.602 233.986 C 257.962 231.449,258.543 229.600,258.981 229.600 C 261.172 229.600,262.703 235.061,261.608 238.970 C 259.890 245.107,249.518 248.910,248.252 243.867 C 248.132 243.386,247.485 242.668,246.814 242.272 C 243.345 240.223,243.389 230.632,246.872 229.671 C 248.466 229.231,250.239 229.474,251.600 230.319 M276.473 342.073 C 276.235 343.009,276.110 343.843,276.194 343.927 C 276.278 344.012,276.551 343.324,276.800 342.400 C 277.049 341.476,277.174 340.641,277.079 340.545 C 276.983 340.450,276.710 341.137,276.473 342.073 M131.221 343.085 C 131.194 343.707,132.832 348.102,133.020 347.914 C 133.098 347.836,132.730 346.608,132.202 345.186 C 131.674 343.764,131.232 342.818,131.221 343.085 M274.722 346.856 C 274.129 348.145,273.721 349.200,273.815 349.200 C 274.106 349.200,276.053 345.156,275.923 344.824 C 275.855 344.652,275.315 345.567,274.722 346.856 M272.439 351.024 C 271.977 351.807,271.780 352.336,272.002 352.199 C 272.436 351.931,273.734 349.600,273.450 349.600 C 273.356 349.600,272.901 350.241,272.439 351.024 M136.800 352.927 C 136.800 353.024,137.835 353.881,139.100 354.830 C 140.365 355.779,141.183 356.287,140.918 355.959 C 140.375 355.285,136.800 352.654,136.800 352.927 M176.900 359.500 C 192.245 359.558,217.355 359.558,232.700 359.500 C 248.045 359.442,235.490 359.394,204.800 359.394 C 174.110 359.394,161.555 359.442,176.900 359.500 " stroke="none" fill="#1e1e1e" fill-rule="evenodd"></path><path id="path2" d="M230.488 47.022 C 230.768 47.302,256.846 47.287,257.127 47.007 C 257.240 46.893,251.243 46.800,243.800 46.800 C 236.357 46.800,230.366 46.900,230.488 47.022 M228.000 47.357 C 228.000 47.746,229.127 47.892,229.636 47.569 C 230.047 47.309,229.901 47.211,229.100 47.206 C 228.495 47.203,228.000 47.271,228.000 47.357 M171.470 47.900 C 181.628 47.959,198.368 47.959,208.670 47.900 C 218.971 47.841,210.660 47.792,190.200 47.792 C 169.740 47.792,161.311 47.840,171.470 47.900 M260.800 48.141 C 261.350 48.433,261.968 48.579,262.173 48.467 C 262.582 48.243,261.360 47.670,260.400 47.634 C 260.070 47.622,260.250 47.850,260.800 48.141 M148.627 48.759 C 148.201 48.926,148.021 49.154,148.227 49.267 C 148.432 49.379,149.050 49.233,149.600 48.941 C 150.658 48.381,149.937 48.246,148.627 48.759 M143.995 50.777 C 140.760 52.432,137.825 55.194,136.488 57.843 C 135.325 60.149,135.059 61.200,135.640 61.200 C 135.911 61.200,136.028 61.095,135.899 60.966 C 135.565 60.631,136.403 58.400,136.863 58.400 C 137.074 58.400,137.150 58.243,137.031 58.050 C 136.687 57.493,138.734 55.513,139.302 55.854 C 139.672 56.077,139.666 55.989,139.281 55.512 C 138.678 54.769,139.215 54.230,140.600 54.188 C 141.043 54.174,141.349 53.930,141.286 53.640 C 141.139 52.967,141.981 51.941,142.445 52.228 C 142.640 52.349,142.800 52.246,142.800 52.000 C 142.800 51.754,142.980 51.664,143.200 51.800 C 143.420 51.936,143.600 51.884,143.600 51.684 C 143.600 51.285,146.798 49.740,147.292 49.900 C 147.461 49.955,147.600 49.820,147.600 49.600 C 147.600 48.997,147.256 49.109,143.995 50.777 M264.833 49.336 C 265.465 49.850,269.554 51.849,269.371 51.554 C 269.133 51.168,265.433 49.200,264.947 49.200 C 264.793 49.200,264.742 49.261,264.833 49.336 M273.808 55.300 C 274.667 56.345,275.434 57.200,275.512 57.200 C 275.798 57.200,274.061 54.978,273.166 54.200 C 272.660 53.760,272.949 54.255,273.808 55.300 M134.245 63.450 C 133.890 64.491,133.610 65.625,133.622 65.971 C 133.633 66.317,133.986 65.527,134.404 64.216 C 135.310 61.380,135.173 60.725,134.245 63.450 M133.214 67.974 C 132.986 68.399,132.827 70.154,132.859 71.874 L 132.918 75.000 133.194 71.567 C 133.346 69.678,133.600 67.923,133.759 67.667 C 133.917 67.410,133.953 67.200,133.838 67.200 C 133.722 67.200,133.442 67.548,133.214 67.974 M279.778 82.400 C 279.778 89.110,279.832 91.855,279.899 88.500 C 279.966 85.145,279.966 79.655,279.899 76.300 C 279.832 72.945,279.778 75.690,279.778 82.400 M132.250 77.250 C 131.983 78.585,131.892 159.847,132.158 159.567 C 132.245 159.475,132.372 141.130,132.441 118.800 C 132.510 96.470,132.696 77.705,132.855 77.100 C 133.014 76.495,132.999 76.000,132.822 76.000 C 132.645 76.000,132.388 76.563,132.250 77.250 M166.963 103.751 C 166.354 105.338,167.806 106.971,169.100 106.154 C 170.411 105.328,170.012 103.420,168.497 103.274 C 167.619 103.190,167.119 103.345,166.963 103.751 M198.600 119.860 C 181.825 122.521,167.873 137.774,166.925 154.490 C 166.640 159.503,166.560 159.403,170.851 159.374 C 173.433 159.357,176.000 157.814,176.000 156.281 C 176.000 156.093,176.700 154.738,177.555 153.270 C 178.410 151.801,179.508 149.880,179.994 149.000 C 187.326 135.737,203.762 132.166,220.332 140.236 C 225.953 142.973,227.893 144.798,230.000 149.329 C 236.737 163.814,229.886 181.857,215.624 187.191 C 210.343 189.166,209.829 193.419,214.342 197.808 C 217.394 200.776,220.201 200.544,226.246 196.824 C 257.804 177.398,250.444 128.385,214.800 120.602 C 211.856 119.959,201.085 119.465,198.600 119.860 M203.500 160.276 C 202.600 160.511,202.161 162.231,202.804 163.005 C 203.454 163.788,205.776 163.767,206.571 162.971 C 208.274 161.269,206.306 159.542,203.500 160.276 M131.452 161.700 C 131.165 162.770,131.111 265.423,131.397 265.136 C 131.506 265.028,131.598 241.851,131.603 213.632 C 131.609 179.524,131.749 162.070,132.020 161.563 C 132.252 161.129,132.270 160.800,132.061 160.800 C 131.859 160.800,131.585 161.205,131.452 161.700 M132.134 172.800 C 132.134 174.450,132.205 175.125,132.291 174.300 C 132.378 173.475,132.378 172.125,132.291 171.300 C 132.205 170.475,132.134 171.150,132.134 172.800 M278.889 181.800 C 278.834 188.400,278.689 194.250,278.567 194.800 C 278.383 195.629,278.419 195.684,278.778 195.125 C 279.072 194.668,279.176 190.475,279.100 182.125 L 278.988 169.800 278.889 181.800 M130.400 303.800 C 130.400 323.783,130.488 340.045,130.596 339.937 C 130.860 339.673,130.873 267.939,130.608 267.675 C 130.494 267.560,130.400 283.817,130.400 303.800 M278.086 291.400 C 278.033 295.580,277.889 299.450,277.767 300.000 C 277.582 300.834,277.618 300.887,277.981 300.320 C 278.269 299.871,278.377 296.950,278.300 291.720 L 278.182 283.800 278.086 291.400 M133.200 347.874 C 133.200 348.735,135.955 352.050,137.815 353.428 L 139.800 354.899 137.516 352.749 C 136.260 351.567,134.775 349.900,134.216 349.044 C 133.657 348.188,133.200 347.662,133.200 347.874 M270.260 353.024 C 268.495 354.960,267.131 355.985,264.713 357.195 C 262.950 358.078,261.753 358.797,262.054 358.794 C 264.058 358.774,270.696 354.049,272.123 351.627 C 273.108 349.955,272.951 350.072,270.260 353.024 M140.433 355.439 C 140.961 356.076,143.987 357.757,144.192 357.528 C 144.255 357.458,143.319 356.819,142.113 356.110 C 140.906 355.400,140.150 355.099,140.433 355.439 " stroke="none" fill="#d9e1ce" fill-rule="evenodd"></path><path id="path3" d="M233.400 47.819 C 234.878 48.358,254.952 47.941,255.567 47.358 C 255.658 47.271,250.348 47.208,243.767 47.218 C 232.801 47.234,231.934 47.284,233.400 47.819 M229.378 47.964 C 229.545 48.234,229.921 48.362,230.215 48.250 C 230.508 48.137,230.815 48.245,230.896 48.488 C 230.977 48.732,231.484 48.965,232.022 49.005 C 232.560 49.046,233.354 49.230,233.786 49.415 C 234.548 49.741,234.547 49.725,233.759 48.878 C 232.847 47.900,228.819 47.060,229.378 47.964 M167.400 48.294 C 202.009 48.569,227.600 48.572,227.600 48.300 C 227.600 48.135,211.085 48.042,190.900 48.094 C 170.715 48.146,160.140 48.236,167.400 48.294 M260.200 48.502 C 260.640 48.764,261.135 49.006,261.300 49.040 C 261.465 49.073,261.690 49.145,261.800 49.200 C 261.910 49.255,262.135 49.325,262.300 49.356 C 262.465 49.387,262.813 49.547,263.072 49.713 C 263.332 49.878,263.658 49.830,263.796 49.607 C 263.934 49.383,263.767 49.178,263.424 49.150 C 262.751 49.096,262.120 48.960,261.800 48.800 C 261.690 48.745,261.435 48.678,261.233 48.650 C 261.032 48.623,260.732 48.465,260.567 48.300 C 260.402 48.135,260.072 48.005,259.833 48.012 C 259.595 48.019,259.760 48.239,260.200 48.502 M151.403 48.795 C 151.258 49.030,151.437 49.084,151.845 48.927 C 152.347 48.735,152.444 48.806,152.204 49.194 C 151.986 49.546,152.031 49.628,152.338 49.438 C 152.592 49.281,152.800 48.983,152.800 48.776 C 152.800 48.277,151.714 48.292,151.403 48.795 M149.833 49.100 C 149.668 49.265,149.368 49.423,149.167 49.450 C 148.965 49.477,148.710 49.545,148.600 49.600 C 148.312 49.744,147.677 49.892,147.100 49.950 C 146.825 49.977,146.600 50.427,146.600 50.949 C 146.600 51.542,146.787 51.826,147.098 51.707 C 147.371 51.602,147.496 51.355,147.374 51.158 C 146.959 50.487,147.631 49.927,148.242 50.435 C 148.695 50.811,148.963 50.734,149.547 50.061 C 149.951 49.596,150.398 49.331,150.541 49.474 C 150.683 49.617,150.800 49.523,150.800 49.267 C 150.800 48.739,150.284 48.650,149.833 49.100 M264.239 49.937 C 264.127 50.118,264.252 50.276,264.518 50.287 C 264.783 50.299,265.720 50.616,266.600 50.991 C 267.480 51.367,268.020 51.487,267.800 51.258 C 267.146 50.577,264.459 49.580,264.239 49.937 M143.424 51.818 C 142.996 52.138,142.872 52.400,143.147 52.400 C 143.422 52.400,143.526 52.596,143.378 52.835 C 143.189 53.142,142.985 53.145,142.684 52.844 C 142.111 52.271,141.169 53.054,141.474 53.850 C 141.788 54.667,140.022 56.448,139.033 56.312 C 138.029 56.173,136.061 59.343,136.849 59.830 C 137.148 60.015,137.218 59.952,137.038 59.662 C 136.881 59.408,136.943 59.200,137.176 59.200 C 137.409 59.200,137.600 59.376,137.600 59.591 C 137.600 59.831,137.983 59.808,138.587 59.533 C 139.131 59.285,139.498 58.959,139.405 58.808 C 139.312 58.657,139.497 58.533,139.818 58.533 C 140.138 58.533,140.400 58.661,140.400 58.818 C 140.400 59.292,139.345 60.012,139.063 59.730 C 138.918 59.585,138.800 59.641,138.800 59.853 C 138.800 60.294,139.626 61.200,140.027 61.200 C 140.174 61.200,140.788 60.435,141.392 59.500 C 141.996 58.565,143.131 57.245,143.914 56.566 C 145.527 55.170,145.106 54.330,143.447 55.634 C 142.871 56.087,142.386 56.310,142.369 56.129 C 142.353 55.948,142.277 55.475,142.202 55.078 C 142.084 54.460,142.158 54.431,142.709 54.878 C 143.187 55.265,143.276 55.271,143.053 54.900 C 142.866 54.589,142.979 54.400,143.353 54.400 C 143.683 54.400,144.063 54.222,144.197 54.005 C 144.337 53.778,144.177 53.711,143.821 53.847 C 143.047 54.144,143.007 53.459,143.761 52.832 C 144.183 52.482,144.360 52.481,144.476 52.827 C 144.571 53.113,144.846 53.006,145.201 52.544 C 145.516 52.135,145.617 51.932,145.426 52.094 C 145.235 52.255,144.881 52.129,144.640 51.812 C 144.257 51.312,144.098 51.313,143.424 51.818 M235.100 51.489 C 235.815 51.578,236.985 51.578,237.700 51.489 C 238.415 51.401,237.830 51.328,236.400 51.328 C 234.970 51.328,234.385 51.401,235.100 51.489 M139.771 54.571 C 139.348 54.881,139.127 55.261,139.282 55.415 C 139.436 55.569,139.862 55.395,140.229 55.029 C 141.092 54.165,140.769 53.842,139.771 54.571 M135.877 60.827 C 135.766 61.252,135.866 61.717,136.099 61.861 C 136.339 62.010,136.407 61.935,136.255 61.689 C 135.860 61.049,136.745 60.657,137.386 61.188 C 137.826 61.554,137.898 61.497,137.744 60.906 C 137.483 59.910,136.132 59.853,135.877 60.827 M136.627 61.956 C 136.488 62.181,136.141 62.275,135.855 62.166 C 135.523 62.038,135.168 62.529,134.868 63.530 C 134.295 65.443,134.286 65.718,134.807 65.396 C 135.030 65.258,135.109 64.977,134.983 64.772 C 134.856 64.568,134.963 64.400,135.219 64.400 C 135.476 64.400,135.582 64.130,135.455 63.800 C 135.329 63.470,135.399 63.200,135.613 63.200 C 136.454 63.200,136.612 63.121,136.937 62.542 C 137.314 61.867,137.023 61.316,136.627 61.956 M135.817 64.299 C 135.486 65.162,135.556 65.600,136.024 65.600 C 136.257 65.600,136.336 65.420,136.200 65.200 C 136.064 64.980,136.124 64.800,136.334 64.800 C 136.543 64.800,136.807 64.560,136.919 64.267 C 137.032 63.973,136.879 63.733,136.579 63.733 C 136.280 63.733,135.937 63.988,135.817 64.299 M138.000 64.800 C 138.000 65.240,138.180 65.600,138.400 65.600 C 138.620 65.600,138.800 65.240,138.800 64.800 C 138.800 64.360,138.620 64.000,138.400 64.000 C 138.180 64.000,138.000 64.360,138.000 64.800 M134.000 66.443 C 134.000 66.593,134.433 66.689,134.962 66.658 C 135.491 66.626,135.847 66.476,135.754 66.325 C 135.538 65.976,134.000 66.079,134.000 66.443 M133.738 67.817 C 133.410 68.672,133.909 69.060,134.507 68.415 C 134.903 67.987,134.889 67.946,134.432 68.207 C 134.010 68.448,133.930 68.360,134.119 67.866 C 134.260 67.500,134.285 67.200,134.175 67.200 C 134.065 67.200,133.868 67.478,133.738 67.817 M133.067 76.267 C 132.672 76.661,132.743 78.000,133.158 78.000 C 133.354 78.000,133.489 77.550,133.458 77.000 C 133.426 76.450,133.385 76.000,133.367 76.000 C 133.348 76.000,133.213 76.120,133.067 76.267 M132.832 79.071 C 132.850 79.495,132.948 79.590,133.066 79.298 C 133.177 79.021,133.442 78.902,133.654 79.033 C 133.882 79.175,133.894 79.460,133.683 79.736 C 133.483 79.996,133.445 82.747,133.596 86.000 L 133.866 91.800 133.993 85.700 C 134.063 82.345,134.138 79.377,134.160 79.105 C 134.182 78.833,133.885 78.550,133.500 78.476 C 133.032 78.386,132.810 78.583,132.832 79.071 M166.519 101.184 C 163.806 102.838,163.427 104.963,165.447 107.199 C 167.314 109.266,168.923 109.370,170.986 107.559 C 174.573 104.409,170.579 98.709,166.519 101.184 M169.800 104.556 C 169.800 106.639,167.263 107.051,166.866 105.034 C 166.606 103.713,167.135 103.143,168.497 103.274 C 169.638 103.384,169.800 103.544,169.800 104.556 M196.400 118.624 C 177.319 122.736,163.744 139.623,162.913 160.281 C 162.189 178.254,167.750 189.211,181.705 197.307 C 189.816 202.013,193.438 201.745,196.328 196.226 C 198.926 191.266,198.034 188.909,191.689 183.980 C 174.403 170.548,177.236 144.337,196.600 138.546 C 206.727 135.517,224.706 140.918,229.071 148.300 C 230.452 150.635,230.635 150.438,229.382 147.965 C 224.246 137.830,202.570 132.644,190.617 138.691 C 186.199 140.926,182.442 144.572,179.994 149.000 C 179.508 149.880,178.410 151.801,177.555 153.270 C 176.700 154.738,176.000 156.093,176.000 156.281 C 176.000 158.502,170.479 160.312,167.441 159.086 C 166.410 158.670,166.762 151.610,168.032 147.200 C 174.481 124.818,198.945 113.722,221.758 122.832 C 239.727 130.008,250.338 151.807,245.104 170.795 C 243.906 175.140,243.923 176.079,245.130 172.326 C 249.419 158.998,246.718 144.965,237.512 132.748 C 229.400 121.982,210.672 115.548,196.400 118.624 M201.721 158.479 C 200.482 159.078,199.905 160.961,200.399 162.795 C 201.816 168.060,209.600 166.431,209.600 160.869 C 209.600 158.430,204.822 156.981,201.721 158.479 M206.174 160.390 C 208.207 161.163,207.028 163.600,204.620 163.600 C 203.023 163.600,202.223 162.761,202.556 161.434 C 202.883 160.129,204.364 159.702,206.174 160.390 M132.225 161.160 C 131.914 161.663,131.909 161.870,131.834 176.400 L 131.767 189.400 131.983 176.685 C 132.125 168.399,132.348 163.871,132.625 163.685 C 133.152 163.331,133.173 161.569,132.646 161.895 C 132.429 162.029,132.374 161.844,132.519 161.466 C 132.791 160.758,132.597 160.557,132.225 161.160 M132.700 164.230 C 132.535 164.397,132.430 167.968,132.467 172.167 C 132.504 176.365,132.599 179.080,132.678 178.200 C 132.757 177.320,133.016 176.215,133.254 175.745 C 133.745 174.775,133.213 163.712,132.700 164.230 M240.552 182.100 C 238.153 186.769,231.563 193.551,226.246 196.824 C 219.320 201.087,216.514 200.877,212.566 195.800 C 212.164 195.284,212.201 195.474,212.672 196.337 C 216.004 202.456,221.768 201.781,231.203 194.167 C 234.948 191.145,242.856 180.800,241.421 180.800 C 241.311 180.800,240.920 181.385,240.552 182.100 M156.814 231.974 C 155.996 233.503,156.295 239.781,157.227 240.625 C 159.609 242.780,161.881 235.320,159.807 232.155 C 159.040 230.984,157.397 230.885,156.814 231.974 M187.486 231.448 C 187.329 231.605,187.200 232.620,187.200 233.704 C 187.200 235.068,186.954 235.986,186.400 236.691 C 184.914 238.581,185.822 240.800,188.083 240.800 C 189.554 240.800,189.996 240.020,189.914 237.567 C 189.874 236.375,190.098 234.810,190.412 234.090 C 191.255 232.155,188.903 230.031,187.486 231.448 M131.004 269.367 C 130.869 270.705,130.816 278.010,130.885 285.600 L 131.011 299.400 131.105 284.529 C 131.187 271.627,131.283 269.574,131.829 269.029 C 132.176 268.681,132.259 268.400,132.014 268.400 C 131.709 268.400,131.694 268.172,131.964 267.667 C 132.257 267.120,132.216 266.933,131.803 266.933 C 131.419 266.933,131.174 267.679,131.004 269.367 M131.892 269.442 C 131.731 269.602,131.627 272.808,131.660 276.567 L 131.721 283.400 132.051 276.600 C 132.394 269.556,132.381 268.953,131.892 269.442 M194.535 284.208 C 184.791 289.063,180.687 304.015,186.961 311.800 C 188.423 313.614,188.526 312.893,187.413 308.610 C 185.034 299.454,187.470 292.473,195.233 286.201 C 199.076 283.096,198.732 282.116,194.535 284.208 M269.477 353.053 C 268.419 354.062,267.620 354.954,267.701 355.034 C 267.782 355.115,268.731 354.286,269.809 353.191 C 272.268 350.695,272.046 350.603,269.477 353.053 " stroke="none" fill="#a7bad2" fill-rule="evenodd"></path></g></svg>