<svg id="svg" version="1.1" xmlns="http://www.w3.org/2000/svg" xmlns:xlink="http://www.w3.org/1999/xlink" width="400" height="280" viewBox="0, 0, 400,280"><g id="svgg"><path id="path0" d="M59.025 77.919 C 17.026 95.192,14.684 156.797,55.269 176.692 C 104.335 200.745,154.669 148.345,127.786 101.200 C 124.350 95.175,119.547 89.600,117.790 89.600 C 117.174 89.600,116.952 89.201,117.276 88.676 C 117.617 88.125,117.497 87.969,116.979 88.289 C 116.501 88.585,115.884 88.460,115.608 88.013 C 115.332 87.566,114.677 87.207,114.153 87.216 C 113.629 87.224,114.738 88.520,116.617 90.096 C 120.147 93.056,124.800 99.166,124.800 100.842 C 124.800 101.562,124.505 101.551,123.600 100.800 C 122.940 100.252,122.400 100.041,122.400 100.330 C 122.400 100.620,121.739 100.503,120.931 100.070 C 119.821 99.476,120.299 100.978,122.893 106.233 C 137.715 136.261,119.328 170.810,86.176 175.222 C 46.204 180.541,18.134 134.908,40.758 101.386 C 43.756 96.944,53.783 87.419,57.105 85.858 C 63.203 82.993,65.226 81.678,63.600 81.635 C 62.339 81.603,62.579 81.241,64.734 79.927 C 66.680 78.741,67.173 78.078,66.444 77.627 C 65.623 77.120,65.636 76.907,66.509 76.560 C 67.109 76.321,66.700 76.106,65.600 76.082 C 64.500 76.058,61.541 76.885,59.025 77.919 M155.733 101.333 C 155.440 101.627,155.200 106.847,155.200 112.933 L 155.200 124.000 157.600 124.000 L 160.000 124.000 160.000 116.753 C 160.000 108.262,160.076 108.268,165.535 117.168 C 169.252 123.230,169.988 124.000,172.062 124.000 L 174.400 124.000 174.400 112.400 L 174.400 100.800 172.400 100.800 C 170.405 100.800,170.400 100.820,170.373 108.600 C 170.343 117.621,170.516 117.666,163.823 106.884 C 160.169 100.997,157.738 99.329,155.733 101.333 M214.831 102.548 C 214.597 103.567,214.494 108.720,214.603 114.000 L 214.800 123.600 217.000 123.853 C 219.184 124.104,219.200 124.071,219.200 119.305 C 219.200 112.863,220.196 110.400,222.800 110.400 C 225.399 110.400,226.400 112.862,226.400 119.252 C 226.400 123.783,226.491 124.000,228.400 124.000 C 230.904 124.000,231.491 112.314,229.155 108.978 C 227.829 107.085,222.193 106.393,221.200 108.000 C 220.109 109.765,219.275 108.604,219.044 105.000 C 218.762 100.610,215.687 98.821,214.831 102.548 M180.342 109.047 C 174.430 114.133,178.216 124.400,186.004 124.400 C 190.399 124.400,195.881 119.894,192.152 119.346 C 191.202 119.206,189.619 119.656,188.634 120.346 C 186.272 122.001,185.128 121.928,183.200 120.000 C 180.536 117.336,181.266 116.800,187.553 116.800 C 194.135 116.800,194.808 116.381,193.552 113.067 C 191.287 107.087,184.885 105.139,180.342 109.047 M196.567 107.700 C 196.255 108.011,196.000 111.103,196.000 114.570 C 196.000 123.379,200.073 127.301,205.369 123.591 C 206.462 122.826,207.278 122.680,207.595 123.191 C 207.870 123.636,208.986 124.000,210.075 124.000 L 212.056 124.000 211.828 115.800 C 211.601 107.647,211.588 107.600,209.600 107.600 C 207.712 107.600,207.588 107.868,207.394 112.400 C 207.058 120.224,206.746 120.936,203.773 120.649 L 201.200 120.400 200.800 114.000 C 200.405 107.687,198.868 105.399,196.567 107.700 M235.351 108.831 C 231.699 112.234,234.636 114.464,238.433 111.171 C 240.589 109.302,242.245 109.384,243.514 111.423 C 244.634 113.221,243.081 114.370,239.508 114.388 C 236.388 114.403,232.800 117.141,232.800 119.505 C 232.800 122.797,234.670 124.329,238.505 124.178 C 240.427 124.102,243.530 124.035,245.400 124.028 L 248.800 124.015 248.800 117.208 C 248.800 111.467,248.549 110.149,247.200 108.800 C 244.929 106.529,237.802 106.547,235.351 108.831 M251.494 108.388 C 248.178 117.028,254.594 127.777,260.569 123.591 C 261.662 122.826,262.478 122.680,262.795 123.191 C 263.070 123.636,264.186 124.000,265.275 124.000 L 267.256 124.000 267.028 115.800 C 266.801 107.647,266.788 107.600,264.800 107.600 C 262.912 107.600,262.788 107.868,262.594 112.400 C 262.271 119.942,261.924 120.800,259.200 120.800 C 256.476 120.800,256.129 119.942,255.806 112.400 C 255.593 107.430,252.843 104.872,251.494 108.388 M271.853 108.275 C 267.951 111.241,269.650 115.310,275.436 116.857 C 279.851 118.037,281.109 119.063,279.912 120.506 C 278.583 122.107,275.961 121.843,273.892 119.899 C 272.170 118.281,269.600 118.273,269.600 119.886 C 269.600 124.332,280.183 126.325,283.307 122.467 C 286.512 118.509,284.873 115.581,278.555 113.976 C 275.743 113.262,274.800 112.643,274.800 111.511 C 274.800 109.588,277.771 109.078,279.168 110.761 C 280.478 112.340,284.000 112.401,284.000 110.845 C 284.000 107.747,275.041 105.851,271.853 108.275 M188.744 111.895 C 189.800 113.869,189.133 114.400,185.600 114.400 C 181.930 114.400,181.229 113.736,182.922 111.865 C 184.637 109.970,187.722 109.986,188.744 111.895 M244.000 118.349 C 244.000 121.826,238.232 122.829,237.749 119.436 C 237.549 118.030,238.036 117.526,240.149 116.954 C 243.264 116.109,244.000 116.376,244.000 118.349 M291.257 132.563 C 283.222 136.772,282.742 150.040,290.479 154.041 C 294.157 155.943,302.400 154.996,302.400 152.672 C 302.400 152.302,302.760 152.000,303.200 152.000 C 303.640 152.000,304.000 152.540,304.000 153.200 C 304.000 153.860,304.376 154.400,304.837 154.400 C 305.359 154.400,305.584 152.375,305.437 149.000 L 305.200 143.600 300.600 143.360 C 297.921 143.220,296.000 143.453,296.000 143.916 C 296.000 144.354,297.710 144.822,299.800 144.956 C 306.919 145.413,303.063 153.630,295.755 153.575 C 288.348 153.518,284.405 144.194,288.765 137.044 C 291.932 131.850,300.161 131.966,302.563 137.238 C 303.621 139.560,305.638 139.918,305.053 137.680 C 303.771 132.779,296.203 129.971,291.257 132.563 M155.378 143.400 L 155.600 154.800 163.000 155.030 C 167.726 155.177,170.400 154.960,170.400 154.430 C 170.400 153.926,167.888 153.600,164.000 153.600 L 157.600 153.600 157.600 144.065 C 157.600 134.473,157.250 132.000,155.892 132.000 C 155.468 132.000,155.250 136.829,155.378 143.400 M173.724 133.150 C 173.876 133.884,174.360 134.465,174.800 134.442 C 175.987 134.380,175.769 132.590,174.524 132.175 C 173.851 131.950,173.551 132.316,173.724 133.150 M200.350 133.042 C 199.465 135.347,200.389 154.666,201.400 155.001 C 202.144 155.248,202.400 153.695,202.400 148.925 C 202.400 142.954,202.544 142.403,204.508 140.858 C 209.363 137.039,212.000 139.628,212.000 148.216 C 212.000 151.565,212.360 154.528,212.800 154.800 C 213.771 155.400,213.894 141.702,212.932 140.185 C 211.783 138.377,207.694 137.697,204.936 138.856 L 202.400 139.923 202.400 135.961 C 202.400 132.269,201.266 130.654,200.350 133.042 M229.600 133.600 C 229.600 134.480,229.960 135.200,230.400 135.200 C 230.840 135.200,231.200 134.480,231.200 133.600 C 231.200 132.720,230.840 132.000,230.400 132.000 C 229.960 132.000,229.600 132.720,229.600 133.600 M220.000 135.944 C 220.000 137.737,219.577 138.372,218.200 138.643 L 216.400 138.997 218.200 139.592 C 219.872 140.144,220.000 140.654,220.000 146.733 C 220.000 150.759,220.370 153.650,220.960 154.240 C 222.123 155.403,224.800 155.514,224.800 154.400 C 224.800 153.960,224.299 153.600,223.686 153.600 C 220.502 153.600,220.605 141.164,223.800 139.868 L 226.000 138.975 224.000 138.456 C 222.587 138.089,221.926 137.301,221.747 135.768 C 221.406 132.853,220.000 132.994,220.000 135.944 M186.000 138.238 C 181.660 139.110,179.351 144.221,180.826 149.695 C 182.029 154.165,188.396 156.289,191.448 153.238 C 193.088 151.598,193.517 152.419,192.765 155.757 C 191.751 160.252,186.616 161.732,183.600 158.400 C 182.062 156.701,180.800 156.314,180.800 157.543 C 180.800 162.179,191.679 162.889,193.998 158.404 C 195.731 155.052,195.733 138.400,194.000 138.400 C 193.340 138.400,192.800 138.804,192.800 139.298 C 192.800 139.900,192.471 139.938,191.800 139.414 C 190.448 138.356,187.943 137.848,186.000 138.238 M240.868 138.885 C 239.499 139.461,238.400 139.584,238.400 139.161 C 238.400 138.743,237.881 138.400,237.246 138.400 C 235.690 138.400,235.840 154.480,237.400 155.000 C 238.145 155.248,238.400 153.696,238.400 148.925 C 238.400 142.954,238.544 142.403,240.508 140.858 C 245.207 137.161,248.000 139.955,248.000 148.353 C 248.000 151.627,248.360 154.528,248.800 154.800 C 250.022 155.555,249.832 141.399,248.600 139.846 C 247.201 138.083,243.785 137.659,240.868 138.885 M326.788 138.506 C 321.691 139.864,319.820 148.162,323.598 152.651 C 330.300 160.617,340.535 151.143,335.579 141.560 C 334.908 140.262,334.276 139.200,334.174 139.200 C 334.073 139.200,332.912 138.899,331.595 138.531 C 330.278 138.164,328.114 138.152,326.788 138.506 M367.170 138.202 C 366.526 138.375,365.131 138.941,364.069 139.458 C 362.560 140.194,362.065 140.181,361.802 139.400 C 360.668 136.021,360.000 139.800,360.000 149.600 C 360.000 156.533,360.305 160.800,360.800 160.800 C 361.240 160.800,361.600 159.201,361.600 157.247 C 361.600 153.734,362.590 151.966,363.622 153.636 C 364.750 155.460,368.006 156.019,370.774 154.862 C 378.857 151.485,375.498 135.959,367.170 138.202 M173.772 146.600 C 174.068 157.237,175.523 157.098,175.828 146.404 C 176.023 139.567,175.873 138.400,174.800 138.400 C 173.726 138.400,173.577 139.585,173.772 146.600 M229.600 146.800 C 229.600 151.867,229.917 155.200,230.400 155.200 C 230.883 155.200,231.200 151.867,231.200 146.800 C 231.200 141.733,230.883 138.400,230.400 138.400 C 229.917 138.400,229.600 141.733,229.600 146.800 M257.783 138.935 C 253.442 140.682,253.637 152.215,258.036 153.903 C 260.431 154.822,264.262 154.411,265.737 153.076 C 267.128 151.817,267.200 151.890,267.200 154.552 C 267.200 159.690,261.157 162.033,257.640 158.258 C 255.739 156.218,254.684 156.740,255.945 159.097 C 257.798 162.559,265.403 162.266,267.778 158.640 C 269.607 155.849,270.141 138.400,268.398 138.400 C 267.812 138.400,267.168 138.850,266.967 139.400 C 266.673 140.200,266.388 140.200,265.540 139.400 C 264.497 138.417,259.776 138.134,257.783 138.935 M311.200 146.800 C 311.200 151.867,311.517 155.200,312.000 155.200 C 312.443 155.200,312.800 153.084,312.800 150.452 C 312.800 144.260,313.849 141.669,316.808 140.552 C 319.422 139.565,319.988 138.400,317.852 138.400 C 317.110 138.400,315.670 139.183,314.652 140.139 L 312.800 141.879 312.800 140.139 C 312.800 139.183,312.440 138.400,312.000 138.400 C 311.517 138.400,311.200 141.733,311.200 146.800 M341.600 144.853 C 341.600 154.693,344.348 157.648,350.512 154.435 C 353.133 153.069,353.600 153.012,353.600 154.060 C 353.600 154.739,353.910 155.103,354.290 154.868 C 355.563 154.081,355.224 138.400,353.933 138.400 C 353.052 138.400,352.800 139.794,352.800 144.676 C 352.800 151.812,351.711 153.600,347.365 153.600 C 343.995 153.600,343.200 151.853,343.200 144.453 C 343.200 140.951,342.863 138.400,342.400 138.400 C 341.933 138.400,341.600 141.084,341.600 144.853 M190.731 140.889 C 195.804 144.879,191.507 155.368,185.899 152.680 C 181.270 150.462,180.556 144.972,184.396 141.131 C 186.766 138.761,187.968 138.715,190.731 140.889 M265.236 141.164 C 268.613 144.540,267.639 151.264,263.548 152.820 C 257.538 155.105,253.523 145.677,258.420 140.780 C 260.541 138.659,262.862 138.790,265.236 141.164 M332.862 141.538 C 337.249 145.926,334.961 153.600,329.266 153.600 C 323.537 153.600,321.210 145.118,325.845 141.131 C 328.760 138.623,330.020 138.696,332.862 141.538 M371.191 140.632 C 373.651 142.624,374.299 148.590,372.373 151.529 C 370.099 154.999,364.924 154.273,362.936 150.205 C 359.719 143.620,365.953 136.390,371.191 140.632 " stroke="none" fill="#000000" fill-rule="evenodd"></path></g></svg>