<?xml version="1.0" encoding="UTF-8" standalone="no"?>
<svg
   xmlns:dc="http://purl.org/dc/elements/1.1/"
   xmlns:cc="http://creativecommons.org/ns#"
   xmlns:rdf="http://www.w3.org/1999/02/22-rdf-syntax-ns#"
   xmlns:svg="http://www.w3.org/2000/svg"
   xmlns="http://www.w3.org/2000/svg"
   xmlns:sodipodi="http://sodipodi.sourceforge.net/DTD/sodipodi-0.dtd"
   xmlns:inkscape="http://www.inkscape.org/namespaces/inkscape"
   width="179.38953mm"
   height="49.802494mm"
   viewBox="0 0 179.38953 49.802494"
   version="1.1"
   id="svg8"
   inkscape:version="1.0.2 (e86c870879, 2021-01-15, custom)"
   sodipodi:docname="icon.svg">
  <defs
     id="defs2" />
  <sodipodi:namedview
     id="base"
     pagecolor="#ffffff"
     bordercolor="#666666"
     borderopacity="1.0"
     inkscape:pageopacity="0.0"
     inkscape:pageshadow="2"
     inkscape:zoom="0.35"
     inkscape:cx="232.55064"
     inkscape:cy="638.46486"
     inkscape:document-units="mm"
     inkscape:current-layer="layer1"
     inkscape:document-rotation="0"
     showgrid="false"
     inkscape:window-width="1368"
     inkscape:window-height="850"
     inkscape:window-x="-6"
     inkscape:window-y="-6"
     inkscape:window-maximized="1" />
  <metadata
     id="metadata5">
    <rdf:RDF>
      <cc:Work
         rdf:about="">
        <dc:format>image/svg+xml</dc:format>
        <dc:type
           rdf:resource="http://purl.org/dc/dcmitype/StillImage" />
        <dc:title></dc:title>
      </cc:Work>
    </rdf:RDF>
  </metadata>
  <g
     inkscape:label="Ebene 1"
     inkscape:groupmode="layer"
     id="layer1"
     transform="translate(-17.754605,-11.507786)">
    <path
       style="fill:#000000;stroke-width:0.649647"
       d="m 41.813403,60.604514 c -1.682499,-0.73244 -2.858225,-2.10971 -2.858225,-3.34818 0,-0.706164 1.430524,-0.14046 2.598586,1.0276 2.587102,2.5871 7.146113,0.69855 7.146113,-2.960254 0,-1.58664 -0.0646,-1.6157 -1.443843,-0.64965 -3.413958,2.391234 -7.791184,0.16604 -8.646981,-4.39576 -1.143836,-6.09717 4.215781,-10.97758 8.646981,-7.87385 0.809285,0.56685 1.443843,0.70961 1.443843,0.32483 0,-0.37757 0.438512,-0.68649 0.97447,-0.68649 1.175512,0 1.441241,14.15512 0.305565,16.277154 -1.457472,2.72332 -4.928281,3.69428 -8.166509,2.2846 z M 47.68857,52.29256 c 1.99848,-2.85323 0.988047,-7.87066 -1.79216,-8.89919 -4.069677,-1.50556 -7.021315,3.84226 -4.650786,8.42635 1.279636,2.47455 4.857007,2.73708 6.442946,0.47284 z m 54.13625,8.226934 c -2.124142,-1.15273 -3.641236,-3.53485 -2.251226,-3.53485 0.493156,0 1.425766,0.58468 2.072476,1.29929 2.46308,2.72167 7.47094,0.71199 7.47094,-2.998134 0,-1.6563 -0.0401,-1.67256 -1.60126,-0.64964 -4.74857,3.111384 -10.108221,-1.75339 -8.737765,-7.93096 0.961997,-4.33638 4.656685,-6.26823 8.342665,-4.36213 1.12632,0.58244 1.99636,0.74196 1.99636,0.36602 0,-0.36648 0.43851,-0.66633 0.97447,-0.66633 1.39098,0 1.40745,13.51946 0.0198,16.203004 -1.50036,2.90139 -5.2393,3.92733 -8.2864,2.27373 z m 5.94574,-8.494814 c 3.63982,-4.62727 -1.66286,-11.4519 -5.91092,-7.60747 -1.55598,1.40815 -1.6261,6.45907 -0.11288,8.13116 1.59174,1.75885 4.42189,1.51281 6.0238,-0.52369 z m 77.1209,8.407084 c -0.98058,-0.98058 -0.45136,-18.389004 0.55903,-18.389004 0.53596,0 0.97447,0.27501 0.97447,0.61112 0,0.33612 0.80394,0.19175 1.78653,-0.32082 4.76203,-2.48411 8.93264,0.58886 8.93264,6.5817 0,5.05775 -4.18821,8.619324 -7.932,6.74522 -0.99698,-0.49908 -2.03195,-1.01424 -2.29993,-1.14481 -0.26798,-0.13057 -0.48724,1.08525 -0.48724,2.701814 0,2.7971 -0.63016,4.11813 -1.5335,3.21478 z m 8.8165,-7.182594 c 2.35142,-2.70602 1.7654,-8.47817 -0.98812,-9.73276 -3.73943,-1.7038 -7.23463,2.48939 -6.04058,7.24688 0.86578,3.44954 4.93938,4.89027 7.0287,2.48588 z M 72.736802,55.85862 c -1.649436,-0.62306 -1.928689,-1.61579 -1.938991,-6.89298 -0.0089,-4.54476 -0.150399,-5.13231 -1.309242,-5.43535 -0.714611,-0.18687 -1.299293,-0.56392 -1.299293,-0.83788 0,-0.27396 0.584682,-0.65101 1.299293,-0.83788 0.955344,-0.24983 1.299294,-0.88613 1.299294,-2.40367 0,-2.72245 1.550889,-2.27222 1.827688,0.53058 0.154837,1.56783 0.517736,2.06132 1.515841,2.06132 0.768156,0 1.194538,0.33671 1.028326,0.81206 -0.156169,0.44663 -0.765212,0.72616 -1.353431,0.62117 -1.819842,-0.32482 -1.567102,10.25192 0.256373,10.72877 0.729222,0.1907 1.22255,0.65665 1.096278,1.03546 -0.289209,0.86764 -1.168205,1.09206 -2.422136,0.6184 z m 55.153618,-0.99829 c -8.02541,-5.36132 -4.72875,-18.66439 4.62527,-18.66439 3.49365,0 7.78436,3.38401 7.78436,6.13939 0,1.01114 -1.83878,0.15266 -2.56018,-1.19528 -2.2749,-4.25069 -9.24796,-3.88066 -11.37591,0.60367 -3.7463,7.89473 3.73775,16.220014 9.91127,11.02533 3.42216,-2.87955 3.17099,-4.87947 -0.61279,-4.87947 -2.37415,0 -3.15815,-0.24191 -3.15815,-0.97447 0,-1.27024 7.4931,-1.42326 7.95286,-0.16241 0.64708,1.77455 0.15263,8.50462 -0.64433,8.77025 -0.47386,0.15794 -0.81206,-0.28485 -0.81206,-1.06319 0,-1.29578 -0.0675,-1.28806 -2.36442,0.27069 -2.94575,1.99904 -5.88267,2.04265 -8.74592,0.12988 z m 28.50472,0.46199 c -2.38727,-1.29552 -3.10216,-2.84048 -3.10216,-6.70416 0,-8.22462 9.83192,-9.9622 12.39671,-2.19084 2.05339,6.22185 -3.83545,11.857544 -9.29455,8.895 z m 6.68315,-3.04762 c 2.58395,-4.13053 0.35256,-9.15966 -3.90528,-8.80174 -1.91124,0.16065 -2.49965,0.58772 -3.43026,2.48966 -2.96012,6.04977 3.83947,11.900674 7.33554,6.31208 z m 8.60129,3.403 c -1.8247,-0.73483 -2.92303,-4.67083 -2.66435,-9.54799 0.30771,-5.80151 1.81821,-5.31409 1.81821,0.58672 0,5.62088 1.0311,7.66962 3.86,7.66962 2.78184,0 3.93576,-2.27894 3.93576,-7.7729 0,-3.62947 0.20062,-4.57039 0.97447,-4.57039 0.80433,0 0.97447,1.19102 0.97447,6.82129 0,6.20105 -0.48087,8.02146 -1.62842,6.16468 -0.25687,-0.41562 -0.92008,-0.29641 -1.80701,0.32482 -1.55385,1.08836 -3.30717,1.19239 -5.46313,0.32415 z M 18.166486,46.26547 c 0,-7.94013 0.153077,-9.41988 0.97447,-9.41988 0.816061,0 0.97447,1.36844 0.97447,8.41808 0,8.41808 0,8.41808 4.982624,8.60782 7.822603,0.29788 7.232728,1.81385 -0.705784,1.81385 -6.22578,0 -6.22578,0 -6.22578,-9.41987 z m 14.941872,2.59858 c 0,-5.63027 0.170146,-6.82129 0.97447,-6.82129 0.804325,0 0.97447,1.19102 0.97447,6.82129 0,5.63027 -0.170145,6.82129 -0.97447,6.82129 -0.804324,0 -0.97447,-1.19102 -0.97447,-6.82129 z m 21.438339,-2.59858 c 0,-7.94013 0.153077,-9.41988 0.97447,-9.41988 0.734707,0 0.97447,0.78973 0.97447,3.20971 0,3.2097 0,3.2097 1.786528,2.27776 2.312405,-1.20626 4.071168,-1.18486 5.864681,0.0714 1.56593,1.09682 2.294538,13.28092 0.794197,13.28092 -0.364902,0 -0.649647,-1.80835 -0.649647,-4.12576 0,-5.90386 -0.932442,-8.21752 -3.311784,-8.21752 -3.332154,0 -4.483975,1.91909 -4.483975,7.47093 0,3.89788 -0.194894,4.87235 -0.97447,4.87235 -0.821393,0 -0.97447,-1.47975 -0.97447,-9.41987 z m 23.820378,8.98677 c -0.979517,-0.97951 -0.478289,-13.20948 0.54137,-13.20948 0.804328,0 0.97447,1.19102 0.97447,6.82129 0,6.24623 -0.317937,7.5861 -1.51584,6.38819 z m 5.41372,-6.38819 c 0,-5.63027 0.170143,-6.82129 0.97447,-6.82129 0.535958,0 0.97447,0.27501 0.97447,0.61112 0,0.33612 0.803938,0.19175 1.786528,-0.32082 2.429536,-1.26736 4.2737,-1.17642 6.099675,0.30081 1.785496,1.44448 2.394468,12.31782 0.721615,12.88461 -0.598643,0.20283 -0.812059,-0.9231 -0.812059,-4.28424 0,-7.28911 -1.454877,-9.34894 -5.28086,-7.47667 -2.20403,1.07856 -2.514899,1.99741 -2.514899,7.43338 0,3.56192 -0.202177,4.49439 -0.97447,4.49439 -0.804327,0 -0.97447,-1.19102 -0.97447,-6.82129 z m 61.066785,0.0541 c 0,-4.15052 0.25747,-6.87543 0.64964,-6.87543 0.35731,0 0.64965,0.43851 0.64965,0.97447 0,0.53596 0.16705,0.97447 0.37123,0.97447 0.20417,0 0.80974,-0.43851 1.3457,-0.97447 0.53595,-0.53596 1.72023,-0.97447 2.63172,-0.97447 1.39946,0 1.53146,0.15159 0.84852,0.97447 -0.4448,0.53596 -1.16614,0.97447 -1.60297,0.97447 -1.82045,0 -2.88,2.33842 -3.07391,6.78415 -0.33979,7.789924 -1.81958,6.279164 -1.81958,-1.85766 z M 33.108358,38.14488 c 0,-0.72183 0.433098,-1.29929 0.97447,-1.29929 0.541372,0 0.97447,0.57746 0.97447,1.29929 0,0.72183 -0.433098,1.2993 -0.97447,1.2993 -0.541372,0 -0.97447,-0.57747 -0.97447,-1.2993 z m 44.825617,0 c 0,-0.72183 0.4331,-1.29929 0.97447,-1.29929 0.54137,0 0.97447,0.57746 0.97447,1.29929 0,0.72183 -0.4331,1.2993 -0.97447,1.2993 -0.54137,0 -0.97447,-0.57747 -0.97447,-1.2993 z m -59.306988,-7.5518 c -1.932362,-1.93237 -0.346453,-19.08371 1.764588,-19.08371 2.375875,0 2.096566,-0.33174 7.247397,8.60782 2.480051,4.30427 2.8708,3.92259 2.8708,-2.80415 0,-5.88997 0,-5.88997 1.786528,-5.68441 2.596949,0.29881 2.876025,18.89087 0.289066,19.2576 -2.075132,0.29417 -2.901076,-0.55167 -6.794441,-6.9581 -3.401736,-5.59747 -3.401736,-5.59747 -3.726559,0.57417 -0.322512,6.12771 -1.432906,8.09525 -3.437379,6.09078 z m 21.280106,-0.17774 c -5.871662,-2.53427 -4.59082,-12.44756 1.803612,-13.95936 3.774917,-0.89249 8.288466,2.7641 8.288466,6.71477 0,1.22395 -0.393749,1.33155 -4.87235,1.33155 -3.564727,0 -4.87235,0.22666 -4.87235,0.84455 0,2.35588 3.853756,3.23292 5.933882,1.35043 1.151444,-1.04204 3.161171,-0.84416 3.161171,0.31125 0,2.69969 -6.035483,4.87728 -9.442431,3.40681 z m 5.39761,-9.27727 c -0.477035,-1.4311 -2.364075,-2.20635 -3.549861,-1.45838 -2.143386,1.35201 -1.712788,2.22403 1.098216,2.22403 1.789243,0 2.620344,-0.25955 2.451645,-0.76565 z m 7.355349,8.6237 c -2.485468,-2.48547 -2.009937,-13.05522 0.587352,-13.05522 1.94894,0 1.94894,0 1.94894,4.26541 0,4.80111 0.758068,6.77858 2.598586,6.77858 1.840518,0 2.598587,-1.97747 2.598587,-6.77858 0,-4.26541 0,-4.26541 1.970918,-4.26541 1.970918,0 1.970918,0 1.786529,6.9837 -0.184391,6.9837 -0.184391,6.9837 -1.808508,6.81326 -2.095189,-0.21987 -2.403963,-0.20653 -5.622112,0.24293 -2.190213,0.3059 -2.955254,0.12037 -4.060292,-0.98467 z m 14.013382,0.8039 c -1.847543,-1.84754 -0.315999,-19.12733 1.678254,-18.93505 2.023559,0.19511 2.119571,0.33155 2.309026,3.28127 0.197674,3.07769 0.197674,3.07769 1.76183,2.05282 4.16463,-2.72877 7.460371,1.03925 7.460371,8.52946 0,7.90308 -4.046804,7.94179 -4.547526,0.0435 -0.557475,-8.79357 -4.547526,-8.83819 -4.547526,-0.0509 0,3.70774 -0.220947,4.80809 -1.027603,5.11763 -1.343565,0.51557 -2.547604,0.50045 -3.086826,-0.0388 z m 15.952621,-0.57821 c -3.287258,-2.30248 -1.08174,-7.43409 3.195098,-7.43409 2.598938,0 3.806462,-0.64032 3.806462,-2.01845 0,-1.53946 -3.555744,-1.75913 -4.132812,-0.25532 -0.408387,1.06425 -3.359465,1.34144 -3.958712,0.37184 -1.941326,-3.14113 8.174081,-5.83532 11.297192,-3.00895 3.535182,3.1993 1.373535,15.3162 -2.252988,12.62886 -0.369285,-0.27365 -1.100137,-0.22641 -1.624116,0.10499 -1.473028,0.93164 -4.730538,0.73152 -6.330124,-0.38888 z M 88.727997,27.903 c 0.398474,-0.26251 0.929768,-1.13505 1.180661,-1.93899 0.552642,-1.77087 -2.784651,-2.16723 -4.172056,-0.49551 -1.605894,1.93498 0.789931,3.88479 2.991395,2.4345 z m 9.604688,2.59859 c -3.07255,-2.0516 -3.293598,-13.79504 -0.259664,-13.79504 1.948939,0 1.948939,0 1.948939,4.49439 0,5.52225 0.36397,6.5496 2.32041,6.5496 2.11912,0 2.87676,-1.78525 2.87676,-6.77858 0,-4.26541 0,-4.26541 1.94894,-4.26541 2.6202,0 3.15538,13.17211 0.56854,13.99314 -0.86722,0.27525 -1.58439,0.11039 -1.92912,-0.44346 -0.4453,-0.71543 -0.79566,-0.72854 -1.85902,-0.0695 -1.44048,0.89274 -4.493943,1.06395 -5.615785,0.31488 z m 14.918735,-0.26264 c -1.46173,-0.70778 -3.02155,-3.38472 -2.35856,-4.04771 0.79837,-0.79837 2.81315,-0.34817 4.07097,0.90965 1.39067,1.39067 2.42318,1.59681 3.75747,0.75017 1.43402,-0.9099 0.15617,-2.55208 -2.34076,-3.00813 -7.69205,-1.40493 -7.15302,-8.38625 0.64751,-8.38625 2.80946,0 3.54353,0.27157 4.85484,1.79607 2.26939,2.63832 -0.12672,4.50368 -2.60355,2.02685 -1.04425,-1.04425 -4.31551,-1.35077 -4.31551,-0.40437 0,0.9423 1.49178,1.82051 3.85525,2.26961 6.95665,1.32188 5.65588,8.92776 -1.50668,8.80996 -1.47037,-0.0242 -3.2978,-0.34631 -4.06098,-0.71585 z"
       id="path4138" />
  </g>
</svg>
